<svg width="256" height="82" viewBox="0 0 256 82" fill="none" xmlns="http://www.w3.org/2000/svg">
<path d="M19.854 30.4446C23.2199 30.4674 26.2219 31.0475 28.86 32.1846C31.4981 33.299 33.7046 34.9246 35.4785 37.0624C37.2524 39.2002 38.8783 43.3171 39.606 46.3418H30.3953C30.0314 44.6134 29.3266 43.1462 28.2805 41.9409C27.2571 40.7128 25.9947 39.7806 24.4938 39.1438C23.0155 38.5071 21.4349 38.1656 19.752 38.1201C18.1145 38.0974 16.5903 38.3473 15.1803 38.8704C13.793 39.3707 12.6672 40.0987 11.803 41.0539C10.9616 42.009 10.5413 43.1236 10.5412 44.3971C10.5412 45.6025 10.9052 46.5916 11.633 47.3649C12.3607 48.1154 13.2591 48.718 14.328 49.1729C15.4195 49.6049 16.5223 49.969 17.6365 50.2646L26.4385 52.7209C27.6438 53.0393 28.9971 53.4716 30.498 54.0174C31.9989 54.5632 33.443 55.325 34.8303 56.3029C36.2175 57.2808 37.3546 58.5657 38.2415 60.1576C39.1512 61.7496 39.606 63.7738 39.606 66.2299C39.606 68.777 39.0716 71.0173 38.0028 72.9504C36.9566 74.8608 35.5352 76.4532 33.7385 77.7268C31.942 79.0003 29.8838 79.9551 27.5642 80.5919C25.2672 81.2287 22.856 81.5476 20.3315 81.5476C16.7383 81.5476 13.4975 80.9217 10.6093 79.6709C7.74371 78.42 5.37818 76.6346 3.51329 74.3149C1.67126 71.9724 0.500319 68.106 0 64.8994L8.5285 64.6946C9.25626 67.6057 10.746 69.8578 12.9975 71.4498C15.2717 73.0417 17.8873 73.8374 20.8437 73.8374C22.5948 73.8373 24.2438 73.5649 25.7902 73.0191C27.3366 72.4733 28.5871 71.6769 29.5423 70.6308C30.5202 69.5847 31.0095 68.2998 31.0095 66.7761C31.0095 66.0938 30.8955 65.4679 30.668 64.8994C30.4406 64.3082 30.0998 63.7849 29.645 63.3301C29.2129 62.8753 28.644 62.4662 27.939 62.1023C27.2569 61.7158 26.461 61.3862 25.5515 61.1133L12.8608 57.3606C11.7691 57.0422 10.5864 56.6212 9.31278 56.0981C8.06199 55.5523 6.86786 54.813 5.73078 53.8806C4.61648 52.9255 3.69548 51.7201 2.96776 50.2646C2.26278 48.7864 1.91004 46.9671 1.91003 44.8066C1.91003 41.6454 2.70627 38.9955 4.29826 36.8577C5.91297 34.6972 8.07373 33.0827 10.78 32.0139C13.5091 30.945 16.5337 30.4219 19.854 30.4446Z" fill="white"/>
<path d="M78.0273 66.0251V31.3996H86.351V80.5239H78.0273L55.2388 45.8983V80.5239H46.9151V31.3996H55.2388L78.0273 66.0251Z" fill="white"/>
<path fill-rule="evenodd" clip-rule="evenodd" d="M136.811 80.9045H128.351L124.957 70.2613H105.607L102.254 80.9045H93.7934L109.281 31.7803H121.324L136.811 80.9045ZM108.025 62.5851H122.509L115.222 39.7362L108.025 62.5851Z" fill="white"/>
<path fill-rule="evenodd" clip-rule="evenodd" d="M163.722 31.3996C164.199 31.3996 164.813 31.4222 165.564 31.4677C166.314 31.4904 167.008 31.5587 167.645 31.6724C170.487 32.1045 172.83 33.0486 174.673 34.5041C176.537 35.9596 177.913 37.8021 178.8 40.0308C179.71 42.2367 180.164 44.6927 180.165 47.3989C180.165 50.0824 179.71 52.5389 178.8 54.7676C177.89 56.9737 176.503 58.8048 174.638 60.2603C172.796 61.7158 170.465 62.6593 167.645 63.0914C167.008 63.1823 166.303 63.2506 165.53 63.2961C164.779 63.3416 164.177 63.3648 163.722 63.3648H151.645V80.5239H143.424V31.3996H163.722ZM151.645 55.6886H163.38C163.835 55.6886 164.347 55.6661 164.916 55.6206C165.484 55.5751 166.007 55.4843 166.485 55.3478C167.849 55.0067 168.918 54.404 169.691 53.5398C170.487 52.6757 171.045 51.6977 171.363 50.6061C171.704 49.5144 171.875 48.445 171.875 47.3989C171.875 46.3528 171.704 45.2839 171.363 44.1924C171.045 43.078 170.487 42.0888 169.691 41.2246C168.918 40.3604 167.849 39.7577 166.485 39.4166C166.007 39.2802 165.484 39.2006 164.916 39.1779C164.347 39.1324 163.835 39.1091 163.38 39.1091H151.645V55.6886Z" fill="white"/>
<path d="M195.445 72.8143H217.141V80.5239H187.223V31.3996H195.445V72.8143Z" fill="white"/>
<path d="M234.534 53.1869L236.31 49.9887L238.443 46.0798L240.219 42.8816L242.351 38.9728L244.484 35.0639L246.527 31.3996H256L239.318 60.3964V80.5239H230.625V60.3964L232.757 56.3851L234.534 53.1869Z" fill="white"/>
<path fill-rule="evenodd" clip-rule="evenodd" d="M225.281 56.9296L221.741 34.3531L196.58 27.112L250.265 11.6835L225.281 56.9296Z" fill="white" stroke="white" stroke-width="2" stroke-linecap="round" stroke-linejoin="round"/>
</svg>
