<svg width="200" height="200" viewBox="0 0 200 200" fill="none" xmlns="http://www.w3.org/2000/svg">
<rect width="200" height="200" rx="50" fill="white"/>
<path d="M61.5966 68.0013C67.9704 68.0445 73.6551 69.1457 78.6508 71.304C83.6465 73.4192 87.8247 76.5049 91.1839 80.5626C94.5431 84.6204 97.6219 92.4346 99 98.1759H81.558C80.869 94.8952 79.5344 92.1103 77.5534 89.8224C75.6155 87.4914 73.2249 85.7221 70.3826 84.5134C67.5834 83.3047 64.5902 82.6566 61.4034 82.5703C58.3026 82.5271 55.4163 83.0015 52.7462 83.9943C50.1192 84.944 47.9873 86.3258 46.3508 88.1388C44.7574 89.9518 43.9615 92.0673 43.9614 94.4846C43.9614 96.7725 44.6507 98.65 46.0288 100.118C47.4069 101.542 49.1081 102.686 51.1322 103.549C53.1992 104.37 55.2874 105.061 57.3974 105.622L74.0653 110.284C76.3477 110.888 78.9104 111.709 81.7526 112.745C84.5948 113.781 87.3295 115.227 89.9564 117.083C92.5833 118.939 94.7365 121.378 96.4161 124.4C98.1387 127.421 98.9999 131.263 99 135.925C99 140.76 97.988 145.012 95.964 148.682C93.9829 152.308 91.2913 155.33 87.889 157.748C84.487 160.165 80.5894 161.977 76.1971 163.186C71.8473 164.395 67.2812 165 62.5008 165C55.6965 165 49.5596 163.812 44.0902 161.438C38.6639 159.064 34.1844 155.675 30.6529 151.272C27.1648 146.825 24.9474 139.486 24 133.4L40.15 133.011C41.5281 138.537 44.3491 142.812 48.6127 145.833C52.9193 148.855 57.8724 150.365 63.4708 150.365C66.7867 150.365 69.9094 149.848 72.8377 148.812C75.766 147.776 78.1341 146.264 79.9428 144.279C81.7946 142.293 82.7211 139.854 82.7212 136.962C82.7212 135.667 82.5052 134.479 82.0746 133.4C81.6439 132.278 80.9985 131.285 80.1373 130.421C79.319 129.558 78.2418 128.782 76.9068 128.091C75.615 127.357 74.1079 126.732 72.3856 126.214L48.3538 119.091C46.2866 118.486 44.0469 117.687 41.6352 116.694C39.2666 115.658 37.0053 114.255 34.8521 112.485C32.742 110.672 30.998 108.384 29.6199 105.622C28.2849 102.816 27.6169 99.3627 27.6169 95.2619C27.6169 89.2615 29.1247 84.2317 32.1394 80.1739C35.1971 76.0732 39.2888 73.0088 44.4136 70.9799C49.5814 68.9511 55.309 67.9582 61.5966 68.0013Z" fill="black"/>
<path d="M136.548 110.69L139.979 104.571L144.096 97.0908L147.527 90.971L151.644 83.4913L155.762 76.0116L159.707 69H178L145.788 124.486V163H129V124.486L133.117 116.81L136.548 110.69Z" fill="black"/>
<path fill-rule="evenodd" clip-rule="evenodd" d="M118.494 112.282L111.76 69.3408L63.9033 55.5678L166.014 26.2224L118.494 112.282Z" fill="black" stroke="white" stroke-width="2" stroke-linecap="round" stroke-linejoin="round"/>
</svg>
