<svg width="2760" height="755" viewBox="0 0 2760 755" fill="none" xmlns="http://www.w3.org/2000/svg">
<path d="M214.006 204.161C250.287 204.407 282.646 210.66 311.082 222.917C339.518 234.929 363.301 252.451 382.422 275.494C401.543 298.538 419.068 342.913 426.913 375.517H327.63C323.708 356.887 316.111 341.072 304.835 328.079C293.804 314.842 280.196 304.794 264.018 297.93C248.084 291.067 231.046 287.386 212.907 286.896C195.256 286.651 178.827 289.345 163.628 294.983C148.675 300.376 136.54 308.223 127.225 318.518C118.155 328.814 113.624 340.828 113.624 354.555C113.624 367.548 117.547 378.21 125.392 386.545C133.236 394.634 142.92 401.13 154.441 406.033C166.207 410.69 178.093 414.614 190.104 417.801L284.98 444.277C297.972 447.709 312.559 452.369 328.737 458.252C344.916 464.135 360.482 472.347 375.435 482.887C390.388 493.428 402.644 507.278 412.205 524.438C422.01 541.597 426.912 563.416 426.913 589.89C426.913 617.346 421.152 641.494 409.631 662.33C398.355 682.922 383.033 700.088 363.667 713.816C344.302 727.542 322.117 737.834 297.115 744.698C272.355 751.562 246.364 755 219.153 755C180.422 754.999 145.49 748.253 114.357 734.771C83.4693 721.288 57.9713 702.043 37.8697 677.038C18.0144 651.789 5.39293 610.113 0 575.549L91.9286 573.342C99.7731 604.72 115.831 628.996 140.1 646.156C164.613 663.315 192.807 671.891 224.674 671.891C243.549 671.891 261.324 668.954 277.993 663.071C294.661 657.188 308.14 648.604 318.436 637.328C328.977 626.052 334.251 612.202 334.251 595.778C334.251 588.424 333.022 581.677 330.57 575.549C328.119 569.177 324.445 563.536 319.543 558.634C314.885 553.731 308.753 549.322 301.154 545.4C293.801 541.233 285.223 537.68 275.419 534.739L138.626 494.288C126.859 490.856 114.11 486.318 100.382 480.68C86.9001 474.797 74.0286 466.828 61.772 456.778C49.761 446.482 39.8336 433.489 31.9895 417.801C24.3905 401.867 20.5883 382.257 20.5882 358.969C20.5882 324.894 29.1709 296.331 46.3309 273.287C63.7358 250 87.0266 232.598 116.197 221.076C145.614 209.555 178.216 203.916 214.006 204.161Z" fill="url(#paint0_linear_825_14)"/>
<path d="M841.055 587.683V214.456H930.777V743.965H841.055L595.419 370.737V743.965H505.697V214.456H595.419L841.055 587.683Z" fill="url(#paint1_linear_825_14)"/>
<path fill-rule="evenodd" clip-rule="evenodd" d="M1474.69 748.068H1383.49L1346.91 633.345H1138.33L1102.19 748.068H1011L1177.94 218.559H1307.75L1474.69 748.068ZM1164.4 550.603H1320.52L1241.98 304.315L1164.4 550.603Z" fill="url(#paint2_linear_825_14)"/>
<path fill-rule="evenodd" clip-rule="evenodd" d="M1764.75 214.456C1769.9 214.456 1776.52 214.698 1784.61 215.189C1792.7 215.434 1800.18 216.17 1807.04 217.396C1837.68 222.053 1862.94 232.23 1882.79 247.919C1902.89 263.608 1917.72 283.468 1927.28 307.491C1937.09 331.269 1941.99 357.742 1941.99 386.911C1941.99 415.837 1937.09 442.315 1927.28 466.339C1917.48 490.118 1902.52 509.856 1882.42 525.545C1862.56 541.233 1837.43 551.403 1807.04 556.06C1800.18 557.041 1792.58 557.777 1784.24 558.267C1776.15 558.758 1769.66 559.008 1764.75 559.008H1634.58V743.965H1545.96V214.456H1764.75ZM1634.58 476.266H1761.07C1765.98 476.266 1771.49 476.023 1777.62 475.533C1783.75 475.043 1789.39 474.064 1794.54 472.593C1809.24 468.916 1820.77 462.419 1829.1 453.105C1837.68 443.79 1843.69 433.248 1847.12 421.482C1850.8 409.715 1852.64 398.188 1852.64 386.911C1852.64 375.636 1850.8 364.114 1847.12 352.348C1843.69 340.336 1837.68 329.674 1829.1 320.359C1820.77 311.044 1809.25 304.547 1794.54 300.87C1789.39 299.4 1783.75 298.542 1777.62 298.297C1771.49 297.807 1765.98 297.556 1761.07 297.556H1634.58V476.266Z" fill="url(#paint3_linear_825_14)"/>
<path d="M2106.7 660.864H2340.57V743.965H2018.07V214.456H2106.7V660.864Z" fill="url(#paint4_linear_825_14)"/>
<path d="M2528.04 449.3L2547.19 414.827L2570.17 372.693L2589.32 338.22L2612.3 296.086L2635.29 253.952L2657.31 214.456H2759.42L2579.61 527.011V743.965H2485.9V527.011L2508.88 483.774L2528.04 449.3Z" fill="url(#paint5_linear_825_14)"/>
<path d="M214.006 204.161C250.287 204.407 282.646 210.66 311.082 222.917C339.518 234.929 363.301 252.451 382.422 275.494C401.543 298.538 419.068 342.913 426.913 375.517H327.63C323.708 356.887 316.111 341.072 304.835 328.079C293.804 314.842 280.196 304.794 264.018 297.93C248.084 291.067 231.046 287.386 212.907 286.896C195.256 286.651 178.827 289.345 163.628 294.983C148.675 300.376 136.54 308.223 127.225 318.518C118.155 328.814 113.624 340.828 113.624 354.555C113.624 367.548 117.547 378.21 125.392 386.545C133.236 394.634 142.92 401.13 154.441 406.033C166.207 410.69 178.093 414.614 190.104 417.801L284.98 444.277C297.972 447.709 312.559 452.369 328.737 458.252C344.916 464.135 360.482 472.347 375.435 482.887C390.388 493.428 402.644 507.278 412.205 524.438C422.01 541.597 426.912 563.416 426.913 589.89C426.913 617.346 421.152 641.494 409.631 662.33C398.355 682.922 383.033 700.088 363.667 713.816C344.302 727.542 322.117 737.834 297.115 744.698C272.355 751.562 246.364 755 219.153 755C180.422 754.999 145.49 748.253 114.357 734.771C83.4693 721.288 57.9713 702.043 37.8697 677.038C18.0144 651.789 5.39293 610.113 0 575.549L91.9286 573.342C99.7731 604.72 115.831 628.996 140.1 646.156C164.613 663.315 192.807 671.891 224.674 671.891C243.549 671.891 261.324 668.954 277.993 663.071C294.661 657.188 308.14 648.604 318.436 637.328C328.977 626.052 334.251 612.202 334.251 595.778C334.251 588.424 333.022 581.677 330.57 575.549C328.119 569.177 324.445 563.536 319.543 558.634C314.885 553.731 308.753 549.322 301.154 545.4C293.801 541.233 285.223 537.68 275.419 534.739L138.626 494.288C126.859 490.856 114.11 486.318 100.382 480.68C86.9001 474.797 74.0286 466.828 61.772 456.778C49.761 446.482 39.8336 433.489 31.9895 417.801C24.3905 401.867 20.5883 382.257 20.5882 358.969C20.5882 324.894 29.1709 296.331 46.3309 273.287C63.7358 250 87.0266 232.598 116.197 221.076C145.614 209.555 178.216 203.916 214.006 204.161Z" stroke="black"/>
<path d="M841.055 587.683V214.456H930.777V743.965H841.055L595.419 370.737V743.965H505.697V214.456H595.419L841.055 587.683Z" stroke="black"/>
<path fill-rule="evenodd" clip-rule="evenodd" d="M1474.69 748.068H1383.49L1346.91 633.345H1138.33L1102.19 748.068H1011L1177.94 218.559H1307.75L1474.69 748.068ZM1164.4 550.603H1320.52L1241.98 304.315L1164.4 550.603Z" stroke="black"/>
<path fill-rule="evenodd" clip-rule="evenodd" d="M1764.75 214.456C1769.9 214.456 1776.52 214.698 1784.61 215.189C1792.7 215.434 1800.18 216.17 1807.04 217.396C1837.68 222.053 1862.94 232.23 1882.79 247.919C1902.89 263.608 1917.72 283.468 1927.28 307.491C1937.09 331.269 1941.99 357.742 1941.99 386.911C1941.99 415.837 1937.09 442.315 1927.28 466.339C1917.48 490.118 1902.52 509.856 1882.42 525.545C1862.56 541.233 1837.43 551.403 1807.04 556.06C1800.18 557.041 1792.58 557.777 1784.24 558.267C1776.15 558.758 1769.66 559.008 1764.75 559.008H1634.58V743.965H1545.96V214.456H1764.75ZM1634.58 476.266H1761.07C1765.98 476.266 1771.49 476.023 1777.62 475.533C1783.75 475.043 1789.39 474.064 1794.54 472.593C1809.24 468.916 1820.77 462.419 1829.1 453.105C1837.68 443.79 1843.69 433.248 1847.12 421.482C1850.8 409.715 1852.64 398.188 1852.64 386.911C1852.64 375.636 1850.8 364.114 1847.12 352.348C1843.69 340.336 1837.68 329.674 1829.1 320.359C1820.77 311.044 1809.25 304.547 1794.54 300.87C1789.39 299.4 1783.75 298.542 1777.62 298.297C1771.49 297.807 1765.98 297.556 1761.07 297.556H1634.58V476.266Z" stroke="black"/>
<path d="M2106.7 660.864H2340.57V743.965H2018.07V214.456H2106.7V660.864Z" stroke="black"/>
<path d="M2528.04 449.3L2547.19 414.827L2570.17 372.693L2589.32 338.22L2612.3 296.086L2635.29 253.952L2657.31 214.456H2759.42L2579.61 527.011V743.965H2485.9V527.011L2508.88 483.774L2528.04 449.3Z" stroke="black"/>
<path d="M2697.33 0.974854C2697.72 0.863283 2698.13 0.996887 2698.38 1.31274C2698.64 1.62878 2698.67 2.06533 2698.48 2.41919L2429.18 490.127C2428.97 490.501 2428.55 490.703 2428.13 490.629C2427.71 490.555 2427.38 490.221 2427.31 489.799L2389.25 247.076L2118.66 169.2C2118.23 169.077 2117.93 168.684 2117.93 168.239C2117.93 167.793 2118.23 167.401 2118.66 167.278L2697.33 0.974854Z" fill="url(#paint6_linear_825_14)"/>
<defs>
<linearGradient id="paint0_linear_825_14" x1="0" y1="479.577" x2="2759.42" y2="479.577" gradientUnits="userSpaceOnUse">
<stop stop-color="#6A11CB"/>
<stop offset="1" stop-color="#2575FC"/>
</linearGradient>
<linearGradient id="paint1_linear_825_14" x1="0" y1="479.577" x2="2759.42" y2="479.577" gradientUnits="userSpaceOnUse">
<stop stop-color="#6A11CB"/>
<stop offset="1" stop-color="#2575FC"/>
</linearGradient>
<linearGradient id="paint2_linear_825_14" x1="0" y1="479.577" x2="2759.42" y2="479.577" gradientUnits="userSpaceOnUse">
<stop stop-color="#6A11CB"/>
<stop offset="1" stop-color="#2575FC"/>
</linearGradient>
<linearGradient id="paint3_linear_825_14" x1="0" y1="479.577" x2="2759.42" y2="479.577" gradientUnits="userSpaceOnUse">
<stop stop-color="#6A11CB"/>
<stop offset="1" stop-color="#2575FC"/>
</linearGradient>
<linearGradient id="paint4_linear_825_14" x1="0" y1="479.577" x2="2759.42" y2="479.577" gradientUnits="userSpaceOnUse">
<stop stop-color="#6A11CB"/>
<stop offset="1" stop-color="#2575FC"/>
</linearGradient>
<linearGradient id="paint5_linear_825_14" x1="0" y1="479.577" x2="2759.42" y2="479.577" gradientUnits="userSpaceOnUse">
<stop stop-color="#6A11CB"/>
<stop offset="1" stop-color="#2575FC"/>
</linearGradient>
<linearGradient id="paint6_linear_825_14" x1="2117.93" y1="245.79" x2="2698.6" y2="245.79" gradientUnits="userSpaceOnUse">
<stop stop-color="#6A11CB"/>
<stop offset="1" stop-color="#2575FC"/>
</linearGradient>
</defs>
</svg>
