<svg width="17" height="16" viewBox="0 0 17 16" fill="none" xmlns="http://www.w3.org/2000/svg">
<path d="M8.52083 2.1875C4.36719 2.1875 1 4.76302 1 8.91667C1 7.60495 2.1224 6.9375 3.50695 6.9375C4.89149 6.9375 6.01389 7.60495 6.01389 8.91667C6.01389 7.60495 7.13629 6.9375 8.52083 6.9375C9.90538 6.9375 11.0278 7.60495 11.0278 8.91667C11.0278 7.60495 12.1501 6.9375 13.5347 6.9375C14.9192 6.9375 16.0417 7.60495 16.0417 8.91667C16.0417 4.76302 12.6745 2.1875 8.52083 2.1875ZM8.52083 2.1875V1M5.35417 13.6667C5.35417 14.5411 6.06305 15.25 6.9375 15.25C7.81198 15.25 8.52083 14.5411 8.52083 13.6667V8.91667" stroke="#BDBBBB" stroke-width="1.5" stroke-linecap="round" stroke-linejoin="round"/>
</svg>
