<svg width="19" height="19" viewBox="0 0 19 19" fill="none" xmlns="http://www.w3.org/2000/svg">
<path d="M14.25 3.95833H15.0417V4.75C15.0417 4.95996 15.1251 5.16132 15.2736 5.30979C15.422 5.45826 15.6234 5.54166 15.8334 5.54166C16.0433 5.54166 16.2447 5.45826 16.3932 5.30979C16.5416 5.16132 16.625 4.95996 16.625 4.75V3.95833H17.4167C17.6267 3.95833 17.828 3.87492 17.9765 3.72646C18.125 3.57799 18.2084 3.37663 18.2084 3.16666C18.2084 2.9567 18.125 2.75534 17.9765 2.60687C17.828 2.45841 17.6267 2.375 17.4167 2.375H16.625V1.58333C16.625 1.37337 16.5416 1.172 16.3932 1.02354C16.2447 0.875072 16.0433 0.791664 15.8334 0.791664C15.6234 0.791664 15.422 0.875072 15.2736 1.02354C15.1251 1.172 15.0417 1.37337 15.0417 1.58333V2.375H14.25C14.0401 2.375 13.8387 2.45841 13.6902 2.60687C13.5418 2.75534 13.4584 2.9567 13.4584 3.16666C13.4584 3.37663 13.5418 3.57799 13.6902 3.72646C13.8387 3.87492 14.0401 3.95833 14.25 3.95833ZM5.54169 5.54166V13.4583C5.54169 13.6683 5.6251 13.8697 5.77356 14.0181C5.92203 14.1666 6.12339 14.25 6.33336 14.25C6.54332 14.25 6.74468 14.1666 6.89315 14.0181C7.04162 13.8697 7.12502 13.6683 7.12502 13.4583V5.54166C7.12502 5.3317 7.04162 5.13034 6.89315 4.98187C6.74468 4.83341 6.54332 4.75 6.33336 4.75C6.12339 4.75 5.92203 4.83341 5.77356 4.98187C5.6251 5.13034 5.54169 5.3317 5.54169 5.54166ZM17.1 7.125C16.9981 7.14577 16.9013 7.18642 16.8151 7.24461C16.729 7.3028 16.6551 7.37741 16.5977 7.46416C16.5404 7.55091 16.5007 7.6481 16.4809 7.7502C16.4612 7.85229 16.4617 7.95728 16.4825 8.05917C16.7916 9.56033 16.6084 11.1211 15.9601 12.5099C15.3118 13.8987 14.233 15.0414 12.8837 15.7685C11.5345 16.4955 9.98675 16.7681 8.47031 16.5457C6.95387 16.3234 5.54954 15.618 4.46579 14.5342C3.38204 13.4505 2.67664 12.0462 2.4543 10.5297C2.23196 9.01327 2.50453 7.46555 3.23155 6.11631C3.95858 4.76706 5.1013 3.68821 6.49009 3.03991C7.87887 2.3916 9.43969 2.2084 10.9409 2.5175C11.1508 2.55949 11.3689 2.51636 11.547 2.39758C11.7252 2.27881 11.8489 2.09413 11.8909 1.88416C11.9329 1.6742 11.8897 1.45616 11.7709 1.278C11.6522 1.09984 11.4675 0.976157 11.2575 0.934164C10.6782 0.826221 10.0892 0.778468 9.50002 0.791664C7.77768 0.791664 6.09401 1.3024 4.66193 2.25928C3.22986 3.21617 2.11369 4.57622 1.45457 6.16746C0.79546 7.7587 0.623006 9.50966 0.959019 11.1989C1.29503 12.8882 2.12442 14.4398 3.3423 15.6577C4.56019 16.8756 6.11186 17.705 7.80111 18.041C9.49036 18.377 11.2413 18.2046 12.8326 17.5454C14.4238 16.8863 15.7839 15.7702 16.7407 14.3381C17.6976 12.906 18.2084 11.2223 18.2084 9.5C18.21 8.91501 18.1517 8.3314 18.0342 7.75833C18.0152 7.65501 17.9759 7.5565 17.9185 7.46854C17.8611 7.38058 17.7867 7.30492 17.6998 7.24597C17.6128 7.18703 17.515 7.14597 17.4121 7.1252C17.3091 7.10443 17.203 7.10436 17.1 7.125ZM8.70836 7.125V7.91666C8.71185 8.50254 8.93177 9.06645 9.32586 9.5C8.93177 9.93354 8.71185 10.4975 8.70836 11.0833V11.875C8.70836 12.5049 8.95858 13.109 9.40398 13.5544C9.84938 13.9998 10.4535 14.25 11.0834 14.25H11.875C12.5049 14.25 13.109 13.9998 13.5544 13.5544C13.9998 13.109 14.25 12.5049 14.25 11.875V11.0833C14.2465 10.4975 14.0266 9.93354 13.6325 9.5C14.0266 9.06645 14.2465 8.50254 14.25 7.91666V7.125C14.25 6.49511 13.9998 5.89102 13.5544 5.44562C13.109 5.00022 12.5049 4.75 11.875 4.75H11.0834C10.4535 4.75 9.84938 5.00022 9.40398 5.44562C8.95858 5.89102 8.70836 6.49511 8.70836 7.125ZM12.6667 11.875C12.6667 12.085 12.5833 12.2863 12.4348 12.4348C12.2864 12.5833 12.085 12.6667 11.875 12.6667H11.0834C10.8734 12.6667 10.672 12.5833 10.5236 12.4348C10.3751 12.2863 10.2917 12.085 10.2917 11.875V11.0833C10.2917 10.8734 10.3751 10.672 10.5236 10.5235C10.672 10.3751 10.8734 10.2917 11.0834 10.2917H11.875C12.085 10.2917 12.2864 10.3751 12.4348 10.5235C12.5833 10.672 12.6667 10.8734 12.6667 11.0833V11.875ZM12.6667 7.125V7.91666C12.6667 8.12663 12.5833 8.32799 12.4348 8.47646C12.2864 8.62492 12.085 8.70833 11.875 8.70833H11.0834C10.8734 8.70833 10.672 8.62492 10.5236 8.47646C10.3751 8.32799 10.2917 8.12663 10.2917 7.91666V7.125C10.2917 6.91504 10.3751 6.71367 10.5236 6.5652C10.672 6.41674 10.8734 6.33333 11.0834 6.33333H11.875C12.085 6.33333 12.2864 6.41674 12.4348 6.5652C12.5833 6.71367 12.6667 6.91504 12.6667 7.125Z" fill="#BDBBBB"/>
</svg>
