<svg width="16" height="18" viewBox="0 0 16 18" fill="none" xmlns="http://www.w3.org/2000/svg">
<path d="M2.9375 5.53125C2.9375 5.06152 3.06946 4.60234 3.31669 4.21177C3.56393 3.8212 3.91533 3.51679 4.32646 3.33704C4.7376 3.15728 5.19 3.11025 5.62645 3.20189C6.06291 3.29352 6.46382 3.51972 6.77849 3.85187C7.09316 4.18402 7.30745 4.60721 7.39427 5.06791C7.48108 5.52862 7.43653 6.00615 7.26623 6.44012C7.09593 6.8741 6.80754 7.24502 6.43753 7.50599C6.06752 7.76696 5.63251 7.90625 5.1875 7.90625C4.59076 7.90625 4.01847 7.65603 3.59651 7.21063C3.17455 6.76523 2.9375 6.16114 2.9375 5.53125ZM5.1875 6.71875C5.41 6.71875 5.62751 6.6491 5.81252 6.51862C5.99752 6.38814 6.14172 6.20267 6.22686 5.98569C6.31201 5.7687 6.33429 5.52993 6.29088 5.29958C6.24748 5.06923 6.14033 4.85764 5.98299 4.69156C5.82566 4.52549 5.62521 4.41239 5.40698 4.36657C5.18875 4.32075 4.96255 4.34426 4.75698 4.43414C4.55141 4.52402 4.37571 4.67623 4.2521 4.87151C4.12848 5.06679 4.0625 5.29638 4.0625 5.53125C4.0625 5.84619 4.18103 6.14824 4.39201 6.37094C4.60298 6.59364 4.88913 6.71875 5.1875 6.71875ZM4.52516 14.3351L2.30469 9.17316C1.59672 8.54744 1.08825 7.70698 0.848257 6.76581C0.608265 5.82464 0.648373 4.82832 0.96314 3.91203C1.27791 2.99574 1.85209 2.20383 2.60779 1.64377C3.3635 1.0837 4.26413 0.782573 5.1875 0.78125C5.21859 0.781388 5.24963 0.784118 5.28031 0.789414L14.9349 2.48828C15.1976 2.53448 15.4362 2.67753 15.6083 2.89198C15.7805 3.10643 15.875 3.37838 15.875 3.65945V7.40305C15.875 7.68412 15.7805 7.95607 15.6083 8.17052C15.4362 8.38497 15.1976 8.52802 14.9349 8.57422L8 9.79438V13.8438C8 14.1587 7.88147 14.4607 7.67049 14.6834C7.45952 14.9061 7.17337 15.0312 6.875 15.0312C6.875 15.8186 6.57868 16.5737 6.05124 17.1305C5.52379 17.6872 4.80842 18 4.0625 18H2.9375C2.78832 18 2.64524 17.9374 2.53975 17.8261C2.43426 17.7147 2.375 17.5637 2.375 17.4062C2.375 17.2488 2.43426 17.0978 2.53975 16.9864C2.64524 16.8751 2.78832 16.8125 2.9375 16.8125H4.0625C4.51005 16.8125 4.93928 16.6248 5.25574 16.2908C5.57221 15.9567 5.75 15.5037 5.75 15.0312H5.54961C5.33355 15.0313 5.12204 14.9657 4.94037 14.8422C4.7587 14.7188 4.61455 14.5427 4.52516 14.3351ZM14.75 3.65945L5.1425 1.96875C4.24739 1.96875 3.38895 2.34408 2.75601 3.01218C2.12308 3.68028 1.7675 4.58642 1.7675 5.53125C1.7675 6.47608 2.12308 7.38222 2.75601 8.05032C3.38895 8.71842 4.24739 9.09375 5.1425 9.09375L14.75 7.40379V3.65945ZM5.28031 10.2731C5.24963 10.2784 5.21859 10.2811 5.1875 10.2812C4.76351 10.2811 4.34167 10.2177 3.93453 10.0927L5.55172 13.8438H6.875V9.99254L5.28031 10.2731Z" fill="#BDBBBB"/>
</svg>
