<svg width="19" height="13" viewBox="0 0 19 13" fill="none" xmlns="http://www.w3.org/2000/svg">
<path d="M3.35215 0.675781C2.65828 0.675781 1.97271 0.96125 1.5176 1.52645C1.06249 2.09168 0.812663 2.95096 1.06151 4.18701C1.32671 5.50471 0.624689 6.60611 0.313585 7.81426C2.35083 8.63974 4.3535 8.6397 6.39079 7.81418C6.0796 6.60607 5.37758 5.50467 5.64279 4.18701C5.89163 2.95096 5.64176 2.09168 5.18669 1.52645C4.7315 0.96125 4.04601 0.675781 3.35215 0.675781ZM3.35215 1.84272C4.38685 1.84272 5.22861 2.69896 5.22861 3.73953C5.22861 4.78009 4.38685 5.63642 3.35215 5.63642C2.31749 5.63642 1.47568 4.78009 1.47568 3.73953C1.47568 2.69896 2.31749 1.84272 3.35215 1.84272ZM8.91805 3.08467C8.38608 3.08467 7.86227 3.30484 7.51384 3.74174C7.16541 4.17872 6.96853 4.84732 7.16397 5.82779C7.2741 6.38011 7.18272 6.88227 7.03428 7.36797C7.0635 7.469 7.09098 7.57051 7.11672 7.67247C7.20921 8.04211 7.27279 8.43733 7.28407 8.86016C8.60432 9.16454 9.91522 9.10109 11.2394 8.66911C10.981 7.74971 10.4625 6.87931 10.6722 5.82779C10.8676 4.84732 10.6708 4.17872 10.3223 3.74174C9.97391 3.30484 9.45002 3.08467 8.91805 3.08467ZM8.91805 4.04259C9.70809 4.04259 10.3513 4.69851 10.3513 5.49134C10.3513 6.28418 9.70813 6.94002 8.91805 6.94002C8.12796 6.94002 7.48488 6.28418 7.48488 5.49134C7.48488 4.69851 8.128 4.04259 8.91805 4.04259ZM13.4981 4.6917C13.0698 4.6917 12.6495 4.86889 12.3698 5.22035C12.0902 5.57182 11.9277 6.11244 12.0888 6.92209C12.1957 7.45989 12.0844 7.93834 11.9314 8.39755C11.9535 8.47548 11.9743 8.55374 11.9939 8.63232C12.0643 8.91631 12.1137 9.21987 12.1264 9.54373C13.2201 9.78658 14.3053 9.73991 15.4022 9.40313C15.1961 8.61534 14.7212 7.85848 14.9074 6.92209C15.0685 6.11244 14.906 5.57177 14.6264 5.22035C14.3468 4.86893 13.9264 4.6917 13.4981 4.6917ZM13.4981 5.35238C14.1132 5.35238 14.6139 5.86491 14.6139 6.48031C14.6139 7.09571 14.1132 7.60824 13.4981 7.60824C12.883 7.60824 12.3823 7.09567 12.3823 6.48031C12.3823 5.86496 12.883 5.35238 13.4981 5.35238ZM17.2519 6.13209C16.9165 6.13209 16.5889 6.27056 16.3708 6.54532C16.1528 6.82013 16.0209 7.24628 16.1512 7.90294C16.2323 8.31186 16.1684 8.67731 16.064 9.02213C16.0879 9.10508 16.1104 9.18847 16.1313 9.27225C16.1962 9.53458 16.2398 9.81759 16.2451 10.1215C17.0868 10.2755 17.9231 10.2375 18.7675 10.0058C18.6031 9.35711 18.1914 8.71587 18.3526 7.90294C18.4829 7.24628 18.351 6.82013 18.133 6.54532C17.9149 6.27056 17.5874 6.13205 17.252 6.13205L17.2519 6.13209ZM17.2519 6.75877C17.6997 6.75877 18.0635 7.13427 18.0635 7.57908C18.0635 8.02385 17.6997 8.39939 17.2519 8.39939C16.8042 8.39939 16.4404 8.02385 16.4404 7.57908C16.4404 7.13427 16.8042 6.75877 17.2519 6.75877ZM6.53139 8.55004C4.42204 9.36215 2.28221 9.36215 0.17286 8.55013C0.0540792 9.57072 0.267812 10.7398 1.4233 12.3242H5.28095C6.43652 10.7398 6.65025 9.57068 6.53139 8.55004ZM11.3838 9.39423C10.0105 9.82149 8.62553 9.89043 7.24847 9.6014C7.18616 10.1101 7.04085 10.6554 6.77896 11.2409C6.93023 11.5734 7.13863 11.9322 7.41934 12.3242H10.4168C11.2994 11.0913 11.4696 10.1876 11.3838 9.39423ZM15.518 10.136C14.3793 10.4644 13.2308 10.514 12.0892 10.2851C12.0381 10.6506 11.9347 11.0388 11.7625 11.4506C11.8845 11.7187 12.0509 12.0075 12.2753 12.3242H14.7209C15.3633 11.4174 15.5394 10.7343 15.518 10.136ZM18.8561 10.7443C17.9676 10.9697 17.0724 11.0065 16.1816 10.8562C16.1298 11.1298 16.0442 11.4173 15.9147 11.7193C16.0062 11.9066 16.1242 12.1069 16.276 12.3242H18.2277C18.6782 11.6795 18.8379 11.1811 18.8561 10.7443Z" fill="#BDBBBB"/>
</svg>
