<svg width="17" height="13" viewBox="0 0 17 13" fill="none" xmlns="http://www.w3.org/2000/svg">
<path d="M3.14286 10.5333H2.42857C1.63959 10.5333 1 9.87668 1 9.06667V2.46667C1 1.65665 1.63959 1 2.42857 1H8.85714C9.64612 1 10.2857 1.65665 10.2857 2.46667V9.06667C10.2857 9.87668 9.64612 10.5333 8.85714 10.5333H8.14286M11.3571 10.5333H11C10.6055 10.5333 10.2857 10.205 10.2857 9.8V3.56667C10.2857 3.16166 10.6055 2.83333 11 2.83333H12.7996C13.0165 2.83333 13.2218 2.9346 13.3573 3.10856L15.8435 6.29913C15.9448 6.42916 16 6.59072 16 6.75724V9.8C16 10.205 15.6802 10.5333 15.2857 10.5333M7.42857 10.1667C7.42857 11.1792 6.62908 12 5.64286 12C4.65663 12 3.85714 11.1792 3.85714 10.1667C3.85714 9.15414 4.65663 8.33333 5.64286 8.33333C6.62908 8.33333 7.42857 9.15414 7.42857 10.1667ZM14.9286 10.1667C14.9286 11.1792 14.1291 12 13.1429 12C12.1566 12 11.3571 11.1792 11.3571 10.1667C11.3571 9.15414 12.1566 8.33333 13.1429 8.33333C14.1291 8.33333 14.9286 9.15414 14.9286 10.1667Z" stroke="#BDBBBB" stroke-width="1.5" stroke-linecap="round"/>
</svg>
