<svg width="15" height="17" viewBox="0 0 15 17" fill="none" xmlns="http://www.w3.org/2000/svg">
<path d="M13.4375 2.5625C12.5339 2.56168 11.64 2.7495 10.8131 3.11394C9.69242 1.23101 7.85031 0.293631 7.7657 0.249842C7.68321 0.208564 7.59224 0.187073 7.5 0.187073C7.40776 0.187073 7.31679 0.208564 7.2343 0.249842C7.14969 0.292889 5.30461 1.23101 4.18688 3.11394C3.35999 2.7495 2.46613 2.56168 1.5625 2.5625C1.40503 2.5625 1.25401 2.62505 1.14266 2.7364C1.03131 2.84775 0.96875 2.99878 0.96875 3.15625V6.125C0.970709 7.7538 1.58045 9.32324 2.67862 10.5262C3.7768 11.7291 5.28436 12.4789 6.90625 12.6288V15.2584L4.2032 13.9061C4.13342 13.8712 4.05744 13.8504 3.97962 13.8449C3.90179 13.8393 3.82364 13.8492 3.74962 13.8739C3.6756 13.8985 3.60717 13.9375 3.54822 13.9887C3.48928 14.0398 3.44099 14.102 3.40609 14.1718C3.3712 14.2416 3.3504 14.3176 3.34486 14.3954C3.33933 14.4732 3.34919 14.5514 3.37386 14.6254C3.39853 14.6994 3.43754 14.7678 3.48866 14.8268C3.53978 14.8857 3.60201 14.934 3.6718 14.9689L7.2343 16.7502C7.31679 16.7914 7.40776 16.8129 7.5 16.8129C7.59224 16.8129 7.68321 16.7914 7.7657 16.7502L11.3282 14.9689C11.4691 14.8984 11.5763 14.7749 11.6261 14.6254C11.676 14.4759 11.6644 14.3127 11.5939 14.1718C11.5234 14.0309 11.3999 13.9237 11.2504 13.8739C11.1009 13.824 10.9377 13.8356 10.7968 13.9061L8.09375 15.2584V12.6288C9.71564 12.4789 11.2232 11.7291 12.3214 10.5262C13.4196 9.32324 14.0293 7.7538 14.0312 6.125V3.15625C14.0312 2.99878 13.9687 2.84775 13.8573 2.7364C13.746 2.62505 13.595 2.5625 13.4375 2.5625ZM6.90625 11.4361C5.60051 11.2885 4.39474 10.6656 3.51875 9.68608C2.64275 8.70661 2.15777 7.43905 2.15625 6.125V3.78265C3.46199 3.93028 4.66776 4.55319 5.54375 5.53266C6.41975 6.51214 6.90473 7.77969 6.90625 9.09375V11.4361ZM7.5 6.37437C7.00051 5.2892 6.21422 4.36099 5.22594 3.68988C5.93621 2.51797 7.00719 1.76762 7.5 1.46332C7.99355 1.76613 9.06453 2.51648 9.77406 3.68988C8.78593 4.36116 7.99968 5.28932 7.5 6.37437ZM12.8438 6.125C12.8422 7.43905 12.3573 8.70661 11.4813 9.68608C10.6053 10.6656 9.39949 11.2885 8.09375 11.4361V9.09375C8.09527 7.77969 8.58025 6.51214 9.45625 5.53266C10.3322 4.55319 11.538 3.93028 12.8438 3.78265V6.125Z" fill="#BDBBBB"/>
</svg>
