<svg width="15" height="16" viewBox="0 0 15 16" fill="none" xmlns="http://www.w3.org/2000/svg">
<path d="M3.34376 4.53126V0.968755C3.34376 0.811283 3.40631 0.66026 3.51766 0.548911C3.62901 0.437561 3.78003 0.375005 3.93751 0.375005C4.09498 0.375005 4.246 0.437561 4.35735 0.548911C4.4687 0.66026 4.53126 0.811283 4.53126 0.968755V4.53126C4.53126 4.68873 4.4687 4.83975 4.35735 4.9511C4.246 5.06245 4.09498 5.12501 3.93751 5.12501C3.78003 5.12501 3.62901 5.06245 3.51766 4.9511C3.40631 4.83975 3.34376 4.68873 3.34376 4.53126ZM14.0313 0.968755V14.625C14.0313 14.7825 13.9687 14.9335 13.8574 15.0448C13.746 15.1562 13.595 15.2188 13.4375 15.2188C13.28 15.2188 13.129 15.1562 13.0177 15.0448C12.9063 14.9335 12.8438 14.7825 12.8438 14.625V11.0625H9.28126C9.12378 11.0625 8.97276 10.9999 8.86141 10.8886C8.75006 10.7773 8.68751 10.6262 8.68751 10.4688C8.71508 9.04648 8.89472 7.63125 9.22337 6.24719C9.94922 3.24208 11.3252 1.22778 13.2037 0.423247C13.294 0.384572 13.3925 0.3689 13.4903 0.377635C13.5881 0.386371 13.6823 0.41924 13.7643 0.473299C13.8463 0.527358 13.9136 0.600918 13.9602 0.687387C14.0068 0.773856 14.0312 0.870533 14.0313 0.968755ZM12.8438 2.0004C10.4561 3.82395 9.98856 8.26594 9.89727 9.875H12.8438V2.0004ZM6.89809 0.871528C6.88646 0.793565 6.85943 0.718698 6.81856 0.651293C6.77769 0.583888 6.72381 0.525296 6.66006 0.478933C6.59631 0.43257 6.52397 0.399365 6.44725 0.381255C6.37054 0.363144 6.29098 0.360491 6.21323 0.37345C6.13547 0.386409 6.06108 0.414721 5.99438 0.456733C5.92768 0.498746 5.87002 0.553619 5.82475 0.618151C5.77949 0.682683 5.74752 0.755583 5.73073 0.832599C5.71393 0.909614 5.71263 0.989203 5.72692 1.06672L6.31251 4.57801C6.31251 5.2079 6.06228 5.81199 5.61688 6.25739C5.17149 6.70279 4.56739 6.95301 3.93751 6.95301C3.30762 6.95301 2.70353 6.70279 2.25813 6.25739C1.81273 5.81199 1.56251 5.2079 1.56251 4.57801L2.14735 1.06672C2.16163 0.989203 2.16034 0.909614 2.14354 0.832599C2.12675 0.755583 2.09478 0.682683 2.04952 0.618151C2.00425 0.553619 1.94658 0.498746 1.87989 0.456733C1.81319 0.414721 1.7388 0.386409 1.66104 0.37345C1.58329 0.360491 1.50373 0.363144 1.42702 0.381255C1.3503 0.399365 1.27796 0.43257 1.21421 0.478933C1.15046 0.525296 1.09658 0.583888 1.05571 0.651293C1.01484 0.718698 0.987806 0.793565 0.976177 0.871528L0.382427 4.43403C0.377347 4.46619 0.374866 4.4987 0.375006 4.53126C0.376192 5.37275 0.674789 6.18675 1.21803 6.82941C1.76128 7.47207 2.5142 7.90202 3.34376 8.04329V14.625C3.34376 14.7825 3.40631 14.9335 3.51766 15.0448C3.62901 15.1562 3.78003 15.2188 3.93751 15.2188C4.09498 15.2188 4.246 15.1562 4.35735 15.0448C4.4687 14.9335 4.53126 14.7825 4.53126 14.625V8.04329C5.36081 7.90202 6.11374 7.47207 6.65698 6.82941C7.20022 6.18675 7.49882 5.37275 7.50001 4.53126C7.4999 4.49868 7.49717 4.46617 7.49184 4.43403L6.89809 0.871528Z" fill="#BDBBBB"/>
</svg>
