<svg width="17" height="17" viewBox="0 0 17 17" fill="none" xmlns="http://www.w3.org/2000/svg">
<path d="M8.5 4.60416V4.95832M8.5 4.60416C8.5 3.47699 8.94777 2.39598 9.7448 1.59895C10.5418 0.801923 11.6228 0.354156 12.75 0.354156H13.1042V4.95832C13.1042 6.17942 12.6191 7.35051 11.7556 8.21396C10.8922 9.07741 9.7211 9.56249 8.5 9.56249M8.5 4.60416C8.5 3.47699 8.05223 2.39598 7.2552 1.59895C6.45817 0.801923 5.37717 0.354156 4.25 0.354156H3.89583V4.95832C3.89583 6.17942 4.38091 7.35051 5.24436 8.21396C6.10781 9.07741 7.2789 9.56249 8.5 9.56249M8.5 9.56249V16.2917M8.5 9.56249V15.9375M8.5 16.6458H5.3125C4.18533 16.6458 3.10433 16.1981 2.3073 15.401C1.51027 14.604 1.0625 13.523 1.0625 12.3958H4.25C5.37717 12.3958 6.45817 12.8436 7.2552 13.6406C8.05223 14.4376 8.5 15.5187 8.5 16.6458ZM8.5 16.6458H11.6875C12.8147 16.6458 13.8957 16.1981 14.6927 15.401C15.4897 14.604 15.9375 13.523 15.9375 12.3958H12.75C11.6228 12.3958 10.5418 12.8436 9.7448 13.6406C8.94777 14.4376 8.5 15.5187 8.5 16.6458Z" stroke="#BDBBBB"/>
</svg>
