<svg width="17" height="16" viewBox="0 0 17 16" fill="none" xmlns="http://www.w3.org/2000/svg">
<path d="M4.34375 8.6875H1.375C1.21753 8.6875 1.06651 8.62495 0.955155 8.5136C0.843806 8.40225 0.78125 8.25122 0.78125 8.09375C0.78125 7.93628 0.843806 7.78526 0.955155 7.67391C1.06651 7.56256 1.21753 7.5 1.375 7.5H4.02609L5.03695 5.98297C5.09115 5.90153 5.16464 5.83474 5.25087 5.78854C5.33711 5.74234 5.43342 5.71817 5.53125 5.71817C5.62908 5.71817 5.72539 5.74234 5.81163 5.78854C5.89786 5.83474 5.97135 5.90153 6.02555 5.98297L7.90625 8.80328L8.59945 7.76422C8.65372 7.68288 8.72723 7.61621 8.81346 7.57012C8.89969 7.52402 8.99597 7.49994 9.09375 7.5H10.875C11.0325 7.5 11.1835 7.56256 11.2948 7.67391C11.4062 7.78526 11.4688 7.93628 11.4688 8.09375C11.4688 8.25122 11.4062 8.40225 11.2948 8.5136C11.1835 8.62495 11.0325 8.6875 10.875 8.6875H9.41141L8.40055 10.2045C8.34635 10.286 8.27286 10.3528 8.18663 10.399C8.10039 10.4452 8.00408 10.4693 7.90625 10.4693C7.80842 10.4693 7.71211 10.4452 7.62587 10.399C7.53964 10.3528 7.46615 10.286 7.41195 10.2045L5.53125 7.38273L4.83805 8.4218C4.78395 8.50341 4.71051 8.57037 4.62427 8.61673C4.53803 8.66309 4.44166 8.6874 4.34375 8.6875ZM12.2109 0.96875C10.6783 0.96875 9.33645 1.62781 8.5 2.74184C7.66355 1.62781 6.32168 0.96875 4.78906 0.96875C3.56907 0.970125 2.39945 1.45537 1.53679 2.31804C0.674123 3.1807 0.188875 4.35032 0.1875 5.57031C0.1875 5.62598 0.1875 5.68164 0.1875 5.73731C0.192421 5.89478 0.259696 6.04385 0.374525 6.15172C0.489355 6.25959 0.642332 6.31742 0.799805 6.3125C0.957277 6.30758 1.10634 6.2403 1.21421 6.12548C1.32208 6.01065 1.37992 5.85767 1.375 5.7002C1.375 5.65715 1.375 5.61336 1.375 5.57031C1.37618 4.66521 1.73625 3.79751 2.37626 3.15751C3.01626 2.5175 3.88396 2.15743 4.78906 2.15625C6.23262 2.15625 7.44461 2.92516 7.95078 4.16016C7.99551 4.26906 8.07161 4.3622 8.16941 4.42775C8.2672 4.4933 8.38227 4.5283 8.5 4.5283C8.61773 4.5283 8.7328 4.4933 8.83059 4.42775C8.92839 4.3622 9.00448 4.26906 9.04922 4.16016C9.55539 2.92293 10.7674 2.15625 12.2109 2.15625C13.116 2.15743 13.9837 2.5175 14.6237 3.15751C15.2637 3.79751 15.6238 4.66521 15.625 5.57031C15.625 9.54918 9.85375 13.1518 8.5 13.9422C7.69621 13.4739 5.33605 12.0125 3.55109 10.0672C3.49836 10.0097 3.43483 9.96317 3.3641 9.93022C3.29338 9.89727 3.21687 9.87857 3.13892 9.8752C3.06097 9.87182 2.98312 9.88383 2.90982 9.91054C2.83651 9.93725 2.76918 9.97813 2.71168 10.0309C2.65417 10.0836 2.60762 10.1471 2.57467 10.2178C2.54172 10.2886 2.52302 10.3651 2.51965 10.443C2.51627 10.521 2.52828 10.5988 2.55499 10.6721C2.5817 10.7454 2.62258 10.8128 2.67531 10.8703C4.98871 13.3937 8.08809 15.077 8.21871 15.1475C8.30517 15.194 8.40182 15.2184 8.5 15.2184C8.59818 15.2184 8.69483 15.194 8.78129 15.1475C9.10934 14.9709 16.8125 10.7656 16.8125 5.57031C16.8111 4.35032 16.3259 3.1807 15.4632 2.31804C14.6006 1.45537 13.4309 0.970125 12.2109 0.96875Z" fill="#BDBBBB"/>
</svg>
