<svg width="26" height="23" viewBox="0 0 26 23" fill="none" xmlns="http://www.w3.org/2000/svg">
<path d="M8.67818 17.55C8.06878 18.2463 8.06724 19.3654 8.67475 20.0495C9.28226 20.7337 10.2688 20.7238 10.8782 20.0276C11.4876 19.3313 11.4891 18.2123 10.8816 17.5281C10.2741 16.844 9.28758 16.8538 8.67818 17.55Z" stroke="#BDBBBB" stroke-linecap="round" stroke-linejoin="round"/>
<path d="M12.6365 17.8522C12.9269 17.6285 13.199 17.3759 13.4528 17.0859C15.4831 14.7662 15.4882 11.0337 13.4642 8.75434C11.4403 6.47501 8.14985 6.50776 6.11957 8.82746C4.08928 11.1472 4.08416 14.8797 6.10813 17.159C6.35747 17.4398 6.62888 17.6871 6.91135 17.8967" stroke="#BDBBBB" stroke-linecap="round" stroke-linejoin="round"/>
<path d="M15.968 15.3661C15.3607 16.0525 15.3834 17.1975 16.0188 17.9236C16.6541 18.6496 17.6615 18.6817 18.2688 17.9952C18.8761 17.3088 18.8534 16.1638 18.218 15.4378C17.5827 14.7118 16.5754 14.6797 15.968 15.3661Z" stroke="#BDBBBB" stroke-linecap="round" stroke-linejoin="round"/>
<path d="M20.0175 15.8444C20.3092 15.6279 20.5816 15.381 20.8346 15.0952C22.8579 12.8083 22.7821 8.98913 20.6654 6.57034C18.5488 4.15155 15.1888 4.04451 13.1654 6.33142C11.1421 8.61833 11.2179 12.4374 13.3346 14.8562C13.5953 15.1542 13.8779 15.4188 14.171 15.6454" stroke="#BDBBBB" stroke-linecap="round" stroke-linejoin="round"/>
</svg>
