<svg width="16" height="18" viewBox="0 0 16 18" fill="none" xmlns="http://www.w3.org/2000/svg">
<path d="M9.99971 3.1H9.5C9.49508 3.1 9.48744 3.10092 9.47634 3.10609C9.46496 3.11139 9.44759 3.12239 9.42819 3.14421C9.38733 3.19019 9.35 3.27186 9.35 3.375V5.69586L9.5 5.56091V4.225V3.375H10M9.99971 3.1H10C10.8682 3.1 11.7229 3.41535 12.436 4.01117C12.5021 4.06645 12.5671 4.12416 12.6307 4.18424L12.4732 4.32595L12.4406 4.35529L10.35 6.23698V5.93955L11.6497 4.7702C11.6886 4.79821 11.7271 4.82728 11.7651 4.8574L12.2931 4.19133L11.7246 3.55943L11.5422 3.72356C11.1634 3.54467 10.7613 3.43246 10.35 3.392V3.375H10.0075C10.005 3.375 10.0025 3.375 10 3.375M9.99971 3.1L10 3.375M9.99971 3.1L10 3.375M9.99958 2.525H9.5H8.84491C9.02613 2.34822 9.25856 2.25 9.5 2.25H10C11.3261 2.25 12.5979 2.84263 13.5355 3.89752C14.4732 4.95242 15 6.38316 15 7.875C15 9.36684 14.4732 10.7976 13.5355 11.8525C12.5979 12.9074 11.3261 13.5 10 13.5H7.5L9.99958 2.525ZM8.65 2.78236C8.55274 2.95893 8.5 3.16391 8.5 3.375V6.4625V7.3125H7.65H3.45C3.33397 6.67766 3.02694 6.10723 2.58065 5.69737C2.13436 5.28752 1.57611 5.06329 1 5.0625L8.65 2.78236ZM12.8943 4.79381L13.0566 4.64786C13.1059 4.70969 13.1537 4.77291 13.2 4.83745C13.5441 5.31697 13.8037 5.8692 13.9638 6.4625H13.7967C13.7182 6.19578 13.6175 5.93796 13.4961 5.69246L13.6105 5.58952L13.0419 4.95773L12.3653 5.4723C12.3795 5.49097 12.3936 5.5098 12.4074 5.52879L11.37 6.4625H11.0396L12.8616 4.82322L12.8943 4.79381ZM13.9675 7.3125V6.47626C14.0385 6.74212 14.0895 7.01616 14.1193 7.29555C14.1296 7.39227 14.1373 7.48962 14.1425 7.5875H13.9688H13.9675H11.3907L11.6962 7.3125H13.1111C13.1154 7.34384 13.1192 7.37528 13.1227 7.40683L13.9675 7.3125ZM14.1425 8.1625C14.1373 8.26041 14.1296 8.35779 14.1193 8.45453C14.0897 8.73224 14.0391 9.00468 13.9688 9.26905V8.4375L13.1241 8.34197C13.1205 8.37393 13.1165 8.40577 13.1122 8.4375L14.1425 8.1625ZM13.9638 9.2875C13.76 10.0425 13.3952 10.731 12.9002 11.2878C12.866 11.3263 12.8312 11.3641 12.796 11.4011C12.0212 12.2148 11.0201 12.6499 10.0004 12.65C10.0002 12.65 10.0001 12.65 10 12.65H7.50107L13.9638 9.2875ZM10.4256 7.3125L10.6731 7.5875H10.4256H9.78919L10.0685 7.33619L10.2776 7.14806L10.4256 7.0149V7.3125ZM9.5 6.7043H9.83079L9.64801 6.86881L9.35 7.13703V6.7043V6.53758L9.5 6.7043ZM5.65 15.75C5.65 15.8252 5.62979 15.8919 5.60065 15.941C5.57187 15.9894 5.54081 16.0109 5.52366 16.0189C5.51506 16.0229 5.50867 16.0243 5.50441 16.0248C5.50018 16.0252 5.49578 16.0251 5.49053 16.0239C5.48108 16.0218 5.45704 16.0132 5.42819 15.9808C5.39846 15.9473 5.36894 15.8934 5.35623 15.8215C5.34351 15.7496 5.35069 15.6759 5.37377 15.6132C5.39677 15.5507 5.43009 15.5129 5.45517 15.494C5.4787 15.4764 5.49423 15.475 5.5 15.475C5.50492 15.475 5.51256 15.4759 5.52366 15.4811C5.53504 15.4864 5.55241 15.4974 5.57181 15.5192C5.61267 15.5652 5.65 15.6469 5.65 15.75ZM12.15 15.75C12.15 15.8252 12.1298 15.8919 12.1007 15.941C12.0719 15.9894 12.0408 16.0109 12.0237 16.0189C12.0151 16.0229 12.0087 16.0243 12.0044 16.0248C12.0002 16.0252 11.9958 16.0251 11.9905 16.0239C11.9811 16.0218 11.957 16.0132 11.9282 15.9808C11.8985 15.9473 11.8689 15.8934 11.8562 15.8215C11.8435 15.7496 11.8507 15.6759 11.8738 15.6132C11.8968 15.5507 11.9301 15.5129 11.9552 15.494C11.9787 15.4764 11.9942 15.475 12 15.475C12.0049 15.475 12.0126 15.4759 12.0237 15.4811C12.035 15.4864 12.0524 15.4974 12.0718 15.5192C12.1127 15.5652 12.15 15.6469 12.15 15.75Z" fill="#BDBBBB" stroke="#BDBBBB" stroke-width="1.7"/>
</svg>
