<svg width="19" height="19" viewBox="0 0 19 19" fill="none" xmlns="http://www.w3.org/2000/svg">
<g clip-path="url(#clip0_179_29)">
<mask id="mask0_179_29" style="mask-type:luminance" maskUnits="userSpaceOnUse" x="0" y="0" width="19" height="19">
<path d="M0 0H19V19H0V0Z" fill="white"/>
</mask>
<g mask="url(#mask0_179_29)">
<path d="M10.6875 7.71875H8.31248V9.5M8.31248 9.5H10.2125M8.31248 9.5V11.2812H10.6875M4.15623 11.875V7.125M6.53123 7.125V11.875M4.74998 7.125C4.74998 7.71875 5.93748 11.2812 5.93748 11.875M11.875 7.125V11.2812M11.875 11.2812V11.875M11.875 11.2812C11.875 10.1828 12.6504 9.0915 13.2442 9.0915C13.8379 9.0915 14.8437 10.1828 14.8437 11.2812M14.8437 11.2812V7.125M14.8437 11.2812V11.875M9.49998 1.1875L11.7598 2.54244L14.3853 2.77519L15.4185 5.20006L17.4052 6.93144L16.815 9.5L17.4052 12.0686L15.4173 13.7999L14.3853 16.2248L11.761 16.4564L9.49998 17.8125L7.23898 16.4564L4.6146 16.2248L3.58148 13.7999L1.59479 12.0686L2.18498 9.5L1.59479 6.93144L3.58148 5.20006L4.6146 2.77519L7.23898 2.54244L9.49998 1.1875Z" stroke="#079300"/>
</g>
</g>
<defs>
<clipPath id="clip0_179_29">
<rect width="19" height="19" fill="white"/>
</clipPath>
</defs>
</svg>
