<svg width="15" height="14" viewBox="0 0 15 14" fill="none" xmlns="http://www.w3.org/2000/svg">
<path d="M11 5.875H9V1.9375C9 1.63913 8.89464 1.35298 8.70711 1.142C8.51957 0.931026 8.26522 0.8125 8 0.8125H1C0.918928 0.812515 0.839075 0.834708 0.767323 0.877166C0.695571 0.919624 0.634072 0.981073 0.588127 1.05622C0.542182 1.13136 0.513168 1.21795 0.503586 1.30852C0.494004 1.39909 0.504142 1.49092 0.533125 1.57609C1.22438 3.60391 1.08062 7.46195 0.519375 9.65711C0.506691 9.70768 0.500173 9.75995 0.5 9.8125V12.0625C0.5 12.3609 0.605357 12.647 0.792893 12.858C0.98043 13.069 1.23478 13.1875 1.5 13.1875H3.13188C3.28722 13.1875 3.44044 13.1468 3.57937 13.0687L4.36812 12.625H5.38188L6.17063 13.0687C6.30956 13.1468 6.46278 13.1875 6.61812 13.1875H8.38188C8.53722 13.1875 8.69044 13.1468 8.82938 13.0687L9.61812 12.625H10.6319L11.4206 13.0687C11.5596 13.1468 11.7128 13.1875 11.8681 13.1875H13.5C13.7652 13.1875 14.0196 13.069 14.2071 12.858C14.3946 12.647 14.5 12.3609 14.5 12.0625V9.8125C14.499 8.76855 14.1299 7.76768 13.4738 7.0295C12.8176 6.29132 11.928 5.87612 11 5.875ZM1.67875 1.9375H8V3.625H6C5.86739 3.625 5.74021 3.68426 5.64645 3.78975C5.55268 3.89524 5.5 4.03832 5.5 4.1875C5.5 4.33668 5.55268 4.47976 5.64645 4.58525C5.74021 4.69074 5.86739 4.75 6 4.75H8V5.875H6C5.86739 5.875 5.74021 5.93426 5.64645 6.03975C5.55268 6.14524 5.5 6.28832 5.5 6.4375C5.5 6.58668 5.55268 6.72976 5.64645 6.83525C5.74021 6.94074 5.86739 7 6 7H11C11.5761 7.00079 12.1344 7.22501 12.5806 7.63487C13.0269 8.04473 13.334 8.61516 13.45 9.25H1.64062C2.0625 7.08156 2.15063 4.03492 1.67875 1.9375ZM13.5 12.0625H11.8681L11.0794 11.6188C10.9404 11.5407 10.7872 11.5 10.6319 11.5H9.61812C9.46278 11.5 9.30956 11.5407 9.17062 11.6188L8.38188 12.0625H6.61812L5.82937 11.6188C5.69044 11.5407 5.53722 11.5 5.38188 11.5H4.36812C4.21278 11.5 4.05956 11.5407 3.92063 11.6188L3.13188 12.0625H1.5V10.375H13.5V12.0625Z" fill="#BDBBBB"/>
</svg>
