<svg width="17" height="14" viewBox="0 0 17 14" fill="none" xmlns="http://www.w3.org/2000/svg">
<path d="M11.6875 5.875H10.0937C9.95282 5.875 9.8177 5.81574 9.71807 5.71025C9.61844 5.60476 9.56247 5.46168 9.56247 5.3125C9.56247 5.16332 9.61844 5.02024 9.71807 4.91475C9.8177 4.80926 9.95282 4.75 10.0937 4.75H11.6875C11.8284 4.75 11.9635 4.80926 12.0631 4.91475C12.1628 5.02024 12.2187 5.16332 12.2187 5.3125C12.2187 5.46168 12.1628 5.60476 12.0631 5.71025C11.9635 5.81574 11.8284 5.875 11.6875 5.875ZM6.90622 4.75H6.37497V4.1875C6.37497 4.03832 6.319 3.89524 6.21937 3.78975C6.11974 3.68426 5.98462 3.625 5.84372 3.625C5.70282 3.625 5.5677 3.68426 5.46807 3.78975C5.36844 3.89524 5.31247 4.03832 5.31247 4.1875V4.75H4.78122C4.64032 4.75 4.5052 4.80926 4.40557 4.91475C4.30594 5.02024 4.24997 5.16332 4.24997 5.3125C4.24997 5.46168 4.30594 5.60476 4.40557 5.71025C4.5052 5.81574 4.64032 5.875 4.78122 5.875H5.31247V6.4375C5.31247 6.58668 5.36844 6.72976 5.46807 6.83525C5.5677 6.94074 5.70282 7 5.84372 7C5.98462 7 6.11974 6.94074 6.21937 6.83525C6.319 6.72976 6.37497 6.58668 6.37497 6.4375V5.875H6.90622C7.04712 5.875 7.18224 5.81574 7.28187 5.71025C7.3815 5.60476 7.43747 5.46168 7.43747 5.3125C7.43747 5.16332 7.3815 5.02024 7.28187 4.91475C7.18224 4.80926 7.04712 4.75 6.90622 4.75ZM16.0358 12.1082C15.8355 12.4109 15.5751 12.6636 15.2729 12.8484C14.9706 13.0331 14.6337 13.1456 14.286 13.1778C13.9383 13.2101 13.5882 13.1613 13.2601 13.0349C12.9321 12.9086 12.6342 12.7077 12.3874 12.4464C12.3794 12.438 12.3715 12.4295 12.3642 12.4204L9.72716 9.25H7.27013L4.63579 12.4204L4.61255 12.4464C4.16378 12.9205 3.55582 13.187 2.92185 13.1875C2.57284 13.1874 2.22809 13.1063 1.91183 12.9501C1.59556 12.7938 1.31544 12.5661 1.09115 12.283C0.866857 11.9999 0.703831 11.6682 0.613523 11.3112C0.523216 10.9543 0.507817 10.5807 0.568408 10.2168C0.568088 10.2135 0.568088 10.2102 0.568408 10.207L1.65548 4.29437C1.81726 3.31919 2.29846 2.43557 3.01452 1.79878C3.73058 1.162 4.63568 0.812781 5.57079 0.8125H11.4218C12.3541 0.814075 13.2565 1.16129 13.9722 1.79387C14.6879 2.42644 15.1718 3.30443 15.3398 4.27539C15.3398 4.27961 15.3398 4.28383 15.3398 4.28805L16.4269 10.2063C16.4272 10.2095 16.4272 10.2128 16.4269 10.2161C16.4831 10.5432 16.4775 10.8789 16.4104 11.2037C16.3433 11.5284 16.2159 11.8359 16.0358 12.1082ZM11.4218 8.125C12.1968 8.125 12.94 7.79905 13.4879 7.21886C14.0359 6.63867 14.3437 5.85176 14.3437 5.03125C14.3437 4.21074 14.0359 3.42383 13.4879 2.84364C12.94 2.26345 12.1968 1.9375 11.4218 1.9375H5.57079C4.88478 1.93815 4.22096 2.19494 3.69612 2.66268C3.17128 3.13043 2.81904 3.77917 2.70138 4.49477V4.50391L1.61364 10.4165C1.56556 10.7096 1.60652 11.0113 1.73064 11.2782C1.85475 11.5452 2.05561 11.7635 2.30434 11.9019C2.55307 12.0403 2.83685 12.0916 3.11487 12.0485C3.39288 12.0053 3.6508 11.8699 3.85153 11.6617L6.63528 8.31555C6.68513 8.25567 6.74643 8.20772 6.81513 8.17486C6.88383 8.14201 6.95834 8.12501 7.03372 8.125H11.4218ZM15.3863 10.4165L14.8059 7.25242C14.449 7.86273 13.9508 8.36651 13.3586 8.71606C12.7665 9.06562 12.0998 9.2494 11.4218 9.25H11.1429L13.1484 11.6624C13.2996 11.8181 13.4835 11.9337 13.6851 11.9996C13.8866 12.0654 14.1001 12.0798 14.3079 12.0414C14.654 11.9767 14.9619 11.7693 15.1639 11.4648C15.3659 11.1602 15.4456 10.7832 15.3856 10.4165H15.3863Z" fill="#BDBBBB"/>
</svg>
