<svg width="17" height="17" viewBox="0 0 17 17" fill="none" xmlns="http://www.w3.org/2000/svg">
<path d="M8.5 0C3.825 0 0 3.825 0 8.5V17H17V8.5C17 3.825 13.175 0 8.5 0ZM8.5 1.7C10.965 1.7 13.124 3.026 14.314 4.998C13.9485 5.0575 13.566 5.1 13.175 5.1C10.71 5.1 8.551 3.774 7.361 1.802C7.7265 1.7425 8.109 1.7 8.5 1.7ZM5.168 2.5755C4.63137 4.17381 3.52354 5.51774 2.057 6.3495C2.59363 4.75119 3.70146 3.40726 5.168 2.5755ZM1.7 8.381C3.91 7.548 5.6865 5.8395 6.579 3.6635C7.37623 4.64365 8.38194 5.43376 9.52294 5.97633C10.664 6.51889 11.9116 6.80027 13.175 6.8C13.8125 6.8 14.4245 6.7235 15.0195 6.596C15.198 7.1995 15.3 7.837 15.3 8.5C15.3 12.2485 12.2485 15.3 8.5 15.3C4.7515 15.3 1.7 12.2485 1.7 8.5V8.381ZM1.7 15.3V13.6C2.1845 14.2375 2.7625 14.8155 3.4 15.3H1.7ZM15.3 15.3H13.6C14.2375 14.8155 14.8155 14.2375 15.3 13.6V15.3ZM9.9875 9.35C9.9875 9.06821 10.0994 8.79796 10.2987 8.5987C10.498 8.39944 10.7682 8.2875 11.05 8.2875C11.3318 8.2875 11.602 8.39944 11.8013 8.5987C12.0006 8.79796 12.1125 9.06821 12.1125 9.35C12.1125 9.63179 12.0006 9.90204 11.8013 10.1013C11.602 10.3006 11.3318 10.4125 11.05 10.4125C10.7682 10.4125 10.498 10.3006 10.2987 10.1013C10.0994 9.90204 9.9875 9.63179 9.9875 9.35ZM4.8875 9.35C4.8875 9.06821 4.99944 8.79796 5.1987 8.5987C5.39796 8.39944 5.66821 8.2875 5.95 8.2875C6.23179 8.2875 6.50204 8.39944 6.7013 8.5987C6.90056 8.79796 7.0125 9.06821 7.0125 9.35C7.0125 9.63179 6.90056 9.90204 6.7013 10.1013C6.50204 10.3006 6.23179 10.4125 5.95 10.4125C5.66821 10.4125 5.39796 10.3006 5.1987 10.1013C4.99944 9.90204 4.8875 9.63179 4.8875 9.35Z" fill="#BDBBBB"/>
</svg>
