<svg width="17" height="17" viewBox="0 0 17 17" fill="none" xmlns="http://www.w3.org/2000/svg">
<path d="M8.5 10.2812C8.32385 10.2812 8.15166 10.229 8.0052 10.1312C7.85874 10.0333 7.74458 9.89419 7.67717 9.73145C7.60976 9.56871 7.59213 9.38964 7.62649 9.21687C7.66086 9.04411 7.74568 8.88541 7.87024 8.76086C7.99479 8.6363 8.15349 8.55148 8.32625 8.51711C8.49902 8.48275 8.67809 8.50039 8.84083 8.5678C9.00357 8.6352 9.14267 8.74936 9.24053 8.89582C9.33839 9.04228 9.39063 9.21448 9.39063 9.39062C9.39063 9.62683 9.29679 9.85337 9.12977 10.0204C8.96275 10.1874 8.73621 10.2812 8.5 10.2812ZM16.2188 8.5C16.2188 10.0266 15.7661 11.519 14.9179 12.7883C14.0698 14.0576 12.8643 15.047 11.4538 15.6312C10.0434 16.2154 8.49144 16.3683 6.99415 16.0704C5.49686 15.7726 4.12151 15.0375 3.04202 13.958C1.96254 12.8785 1.2274 11.5031 0.929567 10.0059C0.631737 8.50856 0.784594 6.95658 1.36881 5.54616C1.95302 4.13574 2.94235 2.93024 4.2117 2.08209C5.48104 1.23395 6.97338 0.78125 8.5 0.78125C10.5465 0.783411 12.5085 1.59733 13.9556 3.04441C15.4027 4.49148 16.2166 6.45352 16.2188 8.5ZM1.96875 8.5V8.52449C3.7924 6.97545 6.10726 6.125 8.5 6.125C10.8927 6.125 13.2076 6.97545 15.0313 8.52449V8.5C15.0313 6.7678 14.3431 5.10656 13.1183 3.88171C11.8934 2.65686 10.2322 1.96875 8.5 1.96875C6.76781 1.96875 5.10656 2.65686 3.88171 3.88171C2.65687 5.10656 1.96875 6.7678 1.96875 8.5ZM6.97852 14.8516L5.71309 11.4688H2.68348C3.11385 12.3084 3.72037 13.0454 4.46161 13.6292C5.20286 14.213 6.06137 14.63 6.97852 14.8516ZM8.5 15.0312C8.5616 15.0312 8.62321 15.0312 8.68481 15.0312L10.1744 11.0554C10.2599 10.8291 10.4121 10.6342 10.611 10.4965C10.8098 10.3587 11.0458 10.2847 11.2877 10.2842H14.7848C14.813 10.187 14.8383 10.0883 14.8591 9.98734C14.0299 9.14132 13.0402 8.46923 11.948 8.0104C10.8559 7.55158 9.68315 7.31525 8.49852 7.31525C7.31389 7.31525 6.14117 7.55158 5.049 8.0104C3.95684 8.46923 2.96718 9.14132 2.13797 9.98734C2.16098 10.0868 2.18621 10.1855 2.21219 10.2842H5.71309C5.95502 10.2849 6.19104 10.359 6.38986 10.4969C6.58868 10.6347 6.74091 10.8298 6.82637 11.0561L8.31075 15.0312C8.37457 15.0312 8.43692 15.0312 8.5 15.0312ZM14.3165 11.4688H11.2869L10.0185 14.8524C10.9363 14.6311 11.7955 14.2142 12.5372 13.6302C13.279 13.0462 13.886 12.3089 14.3165 11.4688Z" fill="#BDBBBB"/>
</svg>
