<svg width="12" height="16" viewBox="0 0 12 16" fill="none" xmlns="http://www.w3.org/2000/svg">
<path d="M2.19938 15.2201H9.80066C10.3141 15.2201 10.5708 15.2201 10.7668 15.1372C10.9393 15.0643 11.0795 14.9481 11.1674 14.8051C11.2673 14.6425 11.2673 14.4297 11.2673 14.0041V10.5146C11.2673 9.279 11.2673 8.66127 11.0539 8.1656C10.6842 7.3068 9.86904 6.63101 8.8333 6.32448C8.23545 6.14754 7.49029 6.14754 6.00007 6.14754C4.50975 6.14754 3.76459 6.14754 3.16673 6.32448C2.13096 6.63101 1.31585 7.3068 0.946127 8.1656C0.732727 8.66127 0.732727 9.279 0.732727 10.5146V14.0041C0.732727 14.4297 0.732727 14.6425 0.832634 14.8051C0.920515 14.9481 1.06075 15.0643 1.23324 15.1372C1.42932 15.2201 1.68601 15.2201 2.19938 15.2201Z" stroke="#BDBBBB"/>
<path d="M8.75 6.14754V4.50668C8.75 4.08104 8.75 3.86822 8.65008 3.70565C8.56217 3.56265 8.42202 3.44638 8.2495 3.37351C8.05343 3.29068 7.79676 3.29068 7.28333 3.29068H4.71667C4.20324 3.29068 3.94659 3.29068 3.75051 3.37351C3.57803 3.44638 3.4378 3.56265 3.34991 3.70565C3.25 3.86822 3.25 4.08104 3.25 4.50668V6.14754" stroke="#BDBBBB" stroke-linejoin="round"/>
<path d="M6 1.16004H10.1111" stroke="#BDBBBB" stroke-linecap="round"/>
<path d="M7.375 3.29069V1.16004H4.625V3.29069" stroke="#BDBBBB" stroke-linejoin="round"/>
<path d="M7.76302 10.7882C7.76302 11.5956 6.97359 12.2501 5.99972 12.2501C5.02594 12.2501 4.23651 11.5956 4.23651 10.7882C4.23651 10.4203 4.60272 9.88973 5.00138 9.42127C5.27152 9.10374 5.40664 8.94498 5.65753 8.86123C5.84691 8.79807 6.15262 8.79807 6.34191 8.86123C6.5929 8.94498 6.72792 9.10374 6.99815 9.42127C7.39681 9.88973 7.76302 10.4203 7.76302 10.7882Z" stroke="#BDBBBB"/>
</svg>
