<svg width="19" height="19" viewBox="0 0 19 19" fill="none" xmlns="http://www.w3.org/2000/svg">
<path d="M2.83333 7.96794H16.1667M2.83333 7.96794V15.3578C2.83333 16.2648 3.57952 17 4.5 17H14.5C15.4205 17 16.1667 16.2648 16.1667 15.3578V7.96794M2.83333 7.96794C2.3731 7.96794 2 7.60032 2 7.14684V6.32574C2 5.87227 2.3731 5.50465 2.83333 5.50465H16.1667C16.6269 5.50465 17 5.87227 17 6.32574V7.14684C17 7.60032 16.6269 7.96794 16.1667 7.96794M9.5 5.91519V17M7.60994 2.24976C8.06692 2.50973 8.67483 3.47873 9.11042 4.25838C9.3915 4.76155 9.04175 5.35845 8.45892 5.37016C7.55589 5.3883 6.40027 5.3541 5.94327 5.09412C5.14612 4.64065 4.873 3.6363 5.33323 2.85085C5.79347 2.0654 6.81279 1.79629 7.60994 2.24976ZM11.3599 2.22028C10.9029 2.48026 10.2951 3.44925 9.8595 4.2289C9.57842 4.73207 9.92817 5.32897 10.5109 5.34068C11.414 5.35883 12.5696 5.32462 13.0266 5.06465C13.8237 4.61117 14.0969 3.60682 13.6367 2.82137C13.1764 2.03592 12.1571 1.76681 11.3599 2.22028Z" stroke="#7918C6" stroke-width="2" stroke-linecap="round" stroke-linejoin="round"/>
</svg>
