<svg width="17" height="17" viewBox="0 0 17 17" fill="none" xmlns="http://www.w3.org/2000/svg">
<path d="M10.2812 6.125H6.71875C6.56128 6.125 6.41026 6.18756 6.29891 6.29891C6.18756 6.41026 6.125 6.56128 6.125 6.71875V10.2812C6.125 10.4387 6.18756 10.5897 6.29891 10.7011C6.41026 10.8124 6.56128 10.875 6.71875 10.875H10.2812C10.4387 10.875 10.5897 10.8124 10.7011 10.7011C10.8124 10.5897 10.875 10.4387 10.875 10.2812V6.71875C10.875 6.56128 10.8124 6.41026 10.7011 6.29891C10.5897 6.18756 10.4387 6.125 10.2812 6.125ZM9.6875 9.6875H7.3125V7.3125H9.6875V9.6875ZM16.2188 9.6875H15.0312V7.3125H16.2188C16.3762 7.3125 16.5272 7.24994 16.6386 7.13859C16.7499 7.02724 16.8125 6.87622 16.8125 6.71875C16.8125 6.56128 16.7499 6.41026 16.6386 6.29891C16.5272 6.18756 16.3762 6.125 16.2188 6.125H15.0312V3.15625C15.0312 2.84131 14.9061 2.53926 14.6834 2.31656C14.4607 2.09386 14.1587 1.96875 13.8438 1.96875H10.875V0.78125C10.875 0.623778 10.8124 0.472755 10.7011 0.361405C10.5897 0.250056 10.4387 0.1875 10.2812 0.1875C10.1238 0.1875 9.97275 0.250056 9.8614 0.361405C9.75006 0.472755 9.6875 0.623778 9.6875 0.78125V1.96875H7.3125V0.78125C7.3125 0.623778 7.24994 0.472755 7.13859 0.361405C7.02724 0.250056 6.87622 0.1875 6.71875 0.1875C6.56128 0.1875 6.41026 0.250056 6.29891 0.361405C6.18756 0.472755 6.125 0.623778 6.125 0.78125V1.96875H3.15625C2.84131 1.96875 2.53926 2.09386 2.31656 2.31656C2.09386 2.53926 1.96875 2.84131 1.96875 3.15625V6.125H0.78125C0.623778 6.125 0.472755 6.18756 0.361405 6.29891C0.250056 6.41026 0.1875 6.56128 0.1875 6.71875C0.1875 6.87622 0.250056 7.02724 0.361405 7.13859C0.472755 7.24994 0.623778 7.3125 0.78125 7.3125H1.96875V9.6875H0.78125C0.623778 9.6875 0.472755 9.75006 0.361405 9.8614C0.250056 9.97275 0.1875 10.1238 0.1875 10.2812C0.1875 10.4387 0.250056 10.5897 0.361405 10.7011C0.472755 10.8124 0.623778 10.875 0.78125 10.875H1.96875V13.8438C1.96875 14.1587 2.09386 14.4607 2.31656 14.6834C2.53926 14.9061 2.84131 15.0312 3.15625 15.0312H6.125V16.2188C6.125 16.3762 6.18756 16.5272 6.29891 16.6386C6.41026 16.7499 6.56128 16.8125 6.71875 16.8125C6.87622 16.8125 7.02724 16.7499 7.13859 16.6386C7.24994 16.5272 7.3125 16.3762 7.3125 16.2188V15.0312H9.6875V16.2188C9.6875 16.3762 9.75006 16.5272 9.8614 16.6386C9.97275 16.7499 10.1238 16.8125 10.2812 16.8125C10.4387 16.8125 10.5897 16.7499 10.7011 16.6386C10.8124 16.5272 10.875 16.3762 10.875 16.2188V15.0312H13.8438C14.1587 15.0312 14.4607 14.9061 14.6834 14.6834C14.9061 14.4607 15.0312 14.1587 15.0312 13.8438V10.875H16.2188C16.3762 10.875 16.5272 10.8124 16.6386 10.7011C16.7499 10.5897 16.8125 10.4387 16.8125 10.2812C16.8125 10.1238 16.7499 9.97275 16.6386 9.8614C16.5272 9.75006 16.3762 9.6875 16.2188 9.6875ZM13.8438 13.8438H3.15625V3.15625H13.8438V10.2716C13.8438 10.2716 13.8438 10.2783 13.8438 10.2812C13.8438 10.2842 13.8438 10.2879 13.8438 10.2909V13.8438Z" fill="#BDBBBB"/>
</svg>
