<svg width="18" height="12" viewBox="0 0 18 12" fill="none" xmlns="http://www.w3.org/2000/svg">
<path d="M15.1875 3.55V2.5C15.1875 1.83696 14.8912 1.20107 14.3637 0.732233C13.8363 0.263392 13.1209 0 12.375 0H5.62501C4.87909 0 4.16372 0.263392 3.63627 0.732233C3.10883 1.20107 2.81251 1.83696 2.81251 2.5V3.55C2.17672 3.66476 1.60512 3.97136 1.19455 4.41787C0.783979 4.86438 0.559692 5.42332 0.559692 6C0.559692 6.57668 0.783979 7.13562 1.19455 7.58213C1.60512 8.02864 2.17672 8.33524 2.81251 8.45V10.5C2.81251 10.7652 2.93104 11.0196 3.14202 11.2071C3.35299 11.3946 3.63914 11.5 3.93751 11.5H14.0625C14.3609 11.5 14.647 11.3946 14.858 11.2071C15.069 11.0196 15.1875 10.7652 15.1875 10.5V8.45C15.8233 8.33524 16.3949 8.02864 16.8055 7.58213C17.216 7.13562 17.4403 6.57668 17.4403 6C17.4403 5.42332 17.216 4.86438 16.8055 4.41787C16.3949 3.97136 15.8233 3.66476 15.1875 3.55ZM5.62501 1H12.375C12.8226 1 13.2518 1.15804 13.5683 1.43934C13.8847 1.72064 14.0625 2.10218 14.0625 2.5V3.55C13.4277 3.66603 12.8572 3.97306 12.4474 4.41935C12.0375 4.86564 11.8133 5.42389 11.8125 6H6.18751C6.18672 5.42389 5.9625 4.86564 5.55264 4.41935C5.14278 3.97306 4.57235 3.66603 3.93751 3.55V2.5C3.93751 2.10218 4.1153 1.72064 4.43177 1.43934C4.74824 1.15804 5.17746 1 5.62501 1ZM14.6524 7.5H14.625C14.4758 7.5 14.3328 7.55268 14.2273 7.64645C14.1218 7.74021 14.0625 7.86739 14.0625 8V10.5H3.93751V8C3.93751 7.86739 3.87825 7.74021 3.77276 7.64645C3.66727 7.55268 3.5242 7.5 3.37501 7.5H3.34759C3.01505 7.4952 2.69153 7.40316 2.41765 7.23544C2.14378 7.06773 1.93176 6.83181 1.80823 6.55734C1.6847 6.28286 1.65517 5.98206 1.72335 5.69271C1.79152 5.40336 1.95437 5.13837 2.19142 4.93102C2.42848 4.72368 2.72918 4.58322 3.05575 4.52729C3.38232 4.47136 3.72021 4.50245 4.02696 4.61666C4.33372 4.73088 4.59567 4.92312 4.77991 5.16923C4.96415 5.41535 5.06247 5.70437 5.06251 6V8.5C5.06251 8.63261 5.12177 8.75979 5.22726 8.85355C5.33275 8.94732 5.47583 9 5.62501 9C5.7742 9 5.91727 8.94732 6.02276 8.85355C6.12825 8.75979 6.18751 8.63261 6.18751 8.5V7H11.8125V8.5C11.8125 8.63261 11.8718 8.75979 11.9773 8.85355C12.0828 8.94732 12.2258 9 12.375 9C12.5242 9 12.6673 8.94732 12.7728 8.85355C12.8782 8.75979 12.9375 8.63261 12.9375 8.5V6C12.9376 5.70437 13.0359 5.41535 13.2201 5.16923C13.4044 4.92312 13.6663 4.73088 13.9731 4.61666C14.2798 4.50245 14.6177 4.47136 14.9443 4.52729C15.2708 4.58322 15.5715 4.72368 15.8086 4.93102C16.0457 5.13837 16.2085 5.40336 16.2767 5.69271C16.3449 5.98206 16.3153 6.28286 16.1918 6.55734C16.0683 6.83181 15.8562 7.06773 15.5824 7.23544C15.3085 7.40316 14.985 7.4952 14.6524 7.5Z" fill="#BDBBBB"/>
</svg>
