<svg width="19" height="19" viewBox="0 0 19 19" fill="none" xmlns="http://www.w3.org/2000/svg">
<path d="M7.53573 8.78125C8.00541 8.78125 8.3863 8.38243 8.3863 7.89062C8.3863 7.39882 8.00541 7 7.53573 7C7.06604 7 6.68515 7.39882 6.68515 7.89062C6.68515 8.38243 7.06604 8.78125 7.53573 8.78125Z" stroke="white" stroke-width="1.2" stroke-linecap="round" stroke-linejoin="round"/>
<path d="M10.4008 13.7812C10.8705 13.7812 11.2514 13.3824 11.2514 12.8906C11.2514 12.3988 10.8705 12 10.4008 12C9.93115 12 9.55027 12.3988 9.55027 12.8906C9.55027 13.3824 9.93115 13.7812 10.4008 13.7812Z" stroke="white" stroke-width="1.2" stroke-linecap="round" stroke-linejoin="round"/>
<path d="M9.90602 3.41185C10.0835 3.2976 10.1723 3.24048 10.2443 3.20326C11.154 2.73293 12.2703 3.16221 12.6304 4.12088C12.6588 4.19672 12.6865 4.29859 12.7417 4.50233C12.7672 4.5964 12.7799 4.64344 12.7942 4.68671C12.9667 5.21096 13.3817 5.6197 13.9084 5.78431C13.9519 5.79789 13.9991 5.80993 14.0936 5.83401L14.2219 5.86669C14.6656 5.97981 14.8875 6.03637 15.0495 6.11673C15.7861 6.48199 16.1584 7.3197 15.936 8.1112C15.8871 8.28533 15.7804 8.48794 15.5671 8.89312L15.5055 9.01026C15.4601 9.09644 15.4373 9.13962 15.4183 9.181C15.1875 9.68228 15.2129 10.2642 15.4865 10.7436C15.5091 10.7831 15.5354 10.8241 15.5881 10.906C15.7024 11.0835 15.7595 11.1723 15.7968 11.2443C16.2671 12.154 15.8378 13.2703 14.8791 13.6304C14.8033 13.6589 14.7014 13.6865 14.4977 13.7417C14.4036 13.7672 14.3565 13.7799 14.3133 13.7942C13.7891 13.9667 13.3803 14.3817 13.2157 14.9084C13.2021 14.9519 13.1901 14.9991 13.166 15.0936L13.1333 15.2218C13.0202 15.6656 12.9637 15.8875 12.8833 16.0495C12.518 16.7861 11.6803 17.1584 10.8888 16.936C10.7147 16.8871 10.512 16.7804 10.1069 16.567L9.98981 16.5054C9.90355 16.46 9.86045 16.4373 9.81907 16.4183C9.3177 16.1875 8.73579 16.2129 8.25648 16.4864C8.2169 16.5091 8.17594 16.5354 8.09395 16.5881C7.91645 16.7024 7.82771 16.7595 7.75571 16.7968C6.84604 17.2671 5.72976 16.8378 5.36961 15.8791C5.34112 15.8033 5.31351 15.7014 5.25829 15.4977C5.23279 15.4036 5.22005 15.3565 5.20581 15.3133C5.03328 14.7891 4.61832 14.3803 4.09154 14.2157C4.04806 14.2021 4.00084 14.1901 3.9064 14.1659L3.77818 14.1333C3.33442 14.0202 3.11254 13.9637 2.95049 13.8833C2.21394 13.518 1.84158 12.6803 2.06395 11.8888C2.11287 11.7147 2.21956 11.512 2.43292 11.1069L2.49457 10.9897C2.53998 10.9036 2.56268 10.8604 2.58173 10.819C2.8125 10.3177 2.78711 9.7358 2.51354 9.25641C2.49096 9.21691 2.46459 9.17587 2.41184 9.09396C2.2976 8.91646 2.24047 8.82771 2.20326 8.75572C1.73293 7.84604 2.16222 6.72975 3.12088 6.36961C3.19672 6.34111 3.2986 6.31351 3.50233 6.25828C3.5964 6.23279 3.64343 6.22005 3.68671 6.2058C4.21095 6.03327 4.6197 5.61832 4.78431 5.09154C4.7979 5.04806 4.80994 5.00083 4.83401 4.90639L4.86669 4.77818C4.97981 4.33442 5.03637 4.11254 5.11673 3.95049C5.482 3.21395 6.3197 2.84158 7.1112 3.06395C7.28534 3.11287 7.48793 3.21956 7.89311 3.43292L8.01025 3.49457C8.09643 3.53998 8.13961 3.56268 8.18099 3.58173C8.68227 3.8125 9.26418 3.7871 9.74358 3.51355C9.78308 3.49096 9.82412 3.46459 9.90602 3.41185Z" stroke="white" stroke-width="1.5" stroke-linecap="round" stroke-linejoin="round"/>
<path d="M7.46101 12.3043L10.5274 7.71876" stroke="white" stroke-width="1.5" stroke-linecap="round" stroke-linejoin="round"/>
</svg>
