<svg width="16" height="14" viewBox="0 0 16 14" fill="none" xmlns="http://www.w3.org/2000/svg">
<path d="M5.5 3V1C5.5 0.867392 5.55268 0.740215 5.64645 0.646447C5.74022 0.552678 5.86739 0.5 6 0.5C6.13261 0.5 6.25979 0.552678 6.35356 0.646447C6.44732 0.740215 6.5 0.867392 6.5 1V3C6.5 3.13261 6.44732 3.25979 6.35356 3.35355C6.25979 3.44732 6.13261 3.5 6 3.5C5.86739 3.5 5.74022 3.44732 5.64645 3.35355C5.55268 3.25979 5.5 3.13261 5.5 3ZM8 3.5C8.13261 3.5 8.25979 3.44732 8.35356 3.35355C8.44732 3.25979 8.5 3.13261 8.5 3V1C8.5 0.867392 8.44732 0.740215 8.35356 0.646447C8.25979 0.552678 8.13261 0.5 8 0.5C7.86739 0.5 7.74022 0.552678 7.64645 0.646447C7.55268 0.740215 7.5 0.867392 7.5 1V3C7.5 3.13261 7.55268 3.25979 7.64645 3.35355C7.74022 3.44732 7.86739 3.5 8 3.5ZM10 3.5C10.1326 3.5 10.2598 3.44732 10.3536 3.35355C10.4473 3.25979 10.5 3.13261 10.5 3V1C10.5 0.867392 10.4473 0.740215 10.3536 0.646447C10.2598 0.552678 10.1326 0.5 10 0.5C9.86739 0.5 9.74022 0.552678 9.64645 0.646447C9.55268 0.740215 9.5 0.867392 9.5 1V3C9.5 3.13261 9.55268 3.25979 9.64645 3.35355C9.74022 3.44732 9.86739 3.5 10 3.5ZM15.8 6.4L14 7.75V11.5C14 12.0304 13.7893 12.5391 13.4142 12.9142C13.0391 13.2893 12.5304 13.5 12 13.5H4C3.46957 13.5 2.96086 13.2893 2.58579 12.9142C2.21072 12.5391 2 12.0304 2 11.5V7.75L0.200002 6.4C0.0939154 6.32044 0.0237809 6.20199 0.0050273 6.07071C-0.0137263 5.93944 0.0204371 5.80609 0.100002 5.7C0.179567 5.59391 0.298016 5.52378 0.429291 5.50503C0.560567 5.48627 0.693915 5.52043 0.800002 5.6L2 6.5V5C2 4.86739 2.05268 4.74021 2.14645 4.64645C2.24022 4.55268 2.36739 4.5 2.5 4.5H13.5C13.6326 4.5 13.7598 4.55268 13.8536 4.64645C13.9473 4.74021 14 4.86739 14 5V6.5L15.2 5.6C15.3061 5.52043 15.4394 5.48627 15.5707 5.50503C15.702 5.52378 15.8204 5.59391 15.9 5.7C15.9796 5.80609 16.0137 5.93944 15.995 6.07071C15.9762 6.20199 15.9061 6.32044 15.8 6.4ZM13 5.5H3V11.5C3 11.7652 3.10536 12.0196 3.2929 12.2071C3.48043 12.3946 3.73479 12.5 4 12.5H12C12.2652 12.5 12.5196 12.3946 12.7071 12.2071C12.8946 12.0196 13 11.7652 13 11.5V5.5Z" fill="#BDBBBB"/>
</svg>
