<svg width="17" height="17" viewBox="0 0 17 17" fill="none" xmlns="http://www.w3.org/2000/svg">
<path d="M7.0125 9.35C7.0125 9.48953 6.98502 9.62769 6.93162 9.7566C6.87823 9.88551 6.79996 10.0026 6.7013 10.1013C6.60264 10.2 6.48551 10.2782 6.3566 10.3316C6.22769 10.385 6.08953 10.4125 5.95 10.4125C5.66821 10.4125 5.39796 10.3006 5.1987 10.1013C4.99944 9.90204 4.8875 9.63179 4.8875 9.35C4.8875 9.06821 4.99944 8.79796 5.1987 8.5987C5.39796 8.39944 5.66821 8.2875 5.95 8.2875C6.08953 8.2875 6.22769 8.31498 6.3566 8.36838C6.48551 8.42177 6.60264 8.50004 6.7013 8.5987C6.79996 8.69736 6.87823 8.81449 6.93162 8.9434C6.98502 9.07231 7.0125 9.21047 7.0125 9.35ZM11.05 8.2875C10.7682 8.2875 10.498 8.39944 10.2987 8.5987C10.0994 8.79796 9.9875 9.06821 9.9875 9.35C9.9875 9.63179 10.0994 9.90204 10.2987 10.1013C10.498 10.3006 10.7682 10.4125 11.05 10.4125C11.3318 10.4125 11.602 10.3006 11.8013 10.1013C12.0006 9.90204 12.1125 9.63179 12.1125 9.35C12.1125 9.06821 12.0006 8.79796 11.8013 8.5987C11.602 8.39944 11.3318 8.2875 11.05 8.2875ZM17 8.5C17 10.7543 16.1045 12.9163 14.5104 14.5104C12.9163 16.1045 10.7543 17 8.5 17C7.38376 17 6.27846 16.7801 5.24719 16.353C4.21592 15.9258 3.27889 15.2997 2.48959 14.5104C0.895533 12.9163 0 10.7543 0 8.5C0 6.24566 0.895533 4.08365 2.48959 2.48959C4.08365 0.895533 6.24566 0 8.5 0C9.61624 0 10.7215 0.219859 11.7528 0.647024C12.7841 1.07419 13.7211 1.70029 14.5104 2.48959C15.2997 3.27889 15.9258 4.21592 16.353 5.24719C16.7801 6.27846 17 7.38376 17 8.5ZM7.361 1.802C8.551 3.774 10.71 5.1 13.175 5.1C13.566 5.1 13.9485 5.0575 14.314 4.998C13.124 3.026 10.965 1.7 8.5 1.7C8.109 1.7 7.7265 1.7425 7.361 1.802ZM2.057 6.3495C3.52354 5.51774 4.63137 4.17381 5.168 2.5755C3.70146 3.40726 2.59363 4.75119 2.057 6.3495ZM15.3 8.5C15.3 7.837 15.198 7.1995 15.0195 6.596C14.4245 6.7235 13.8125 6.8 13.175 6.8C11.9116 6.80027 10.664 6.51889 9.52294 5.97633C8.38194 5.43376 7.37623 4.64365 6.579 3.6635C6.13251 4.74225 5.469 5.71768 4.62968 6.52921C3.79036 7.34075 2.79316 7.97106 1.7 8.381V8.5C1.7 12.2485 4.7515 15.3 8.5 15.3C12.2485 15.3 15.3 12.2485 15.3 8.5Z" fill="#BDBBBB"/>
</svg>
