<svg width="16" height="15" viewBox="0 0 16 15" fill="none" xmlns="http://www.w3.org/2000/svg">
<path d="M15.2893 3.04347C14.8693 2.56584 14.2683 2.26223 13.6145 2.19746C13.573 1.84073 13.4469 1.4974 13.2458 1.19295C13.0446 0.888492 12.7734 0.630718 12.4524 0.438747C12.1313 0.246776 11.7686 0.125534 11.3912 0.0840155C11.0138 0.0424967 10.6313 0.081766 10.2721 0.198911C9.91294 0.316055 9.5863 0.508069 9.31642 0.760709C9.04655 1.01335 8.84036 1.32013 8.71316 1.6583C8.58595 1.99647 8.54099 2.35735 8.58162 2.71417C8.62224 3.07099 8.74741 3.41459 8.94782 3.71949C8.94813 3.72125 8.94813 3.72304 8.94782 3.7248L4.00415 8.39715C4.00415 8.39715 4.00415 8.39715 3.99712 8.39715C3.67429 8.20786 3.31047 8.08965 2.93266 8.05128C2.55486 8.01292 2.17275 8.05538 1.81469 8.17551C1.45662 8.29565 1.1318 8.49038 0.864294 8.74527C0.596793 9.00015 0.393484 9.30864 0.269449 9.64786C0.145414 9.98708 0.103834 10.3483 0.147795 10.7048C0.191757 11.0612 0.32013 11.4038 0.523393 11.707C0.726657 12.0102 0.999594 12.2663 1.32196 12.4563C1.64432 12.6463 2.00785 12.7653 2.38556 12.8045C2.42707 13.1613 2.55308 13.5046 2.75425 13.809C2.95542 14.1135 3.22659 14.3713 3.54764 14.5632C3.86869 14.7552 4.23138 14.8765 4.60882 14.918C4.98625 14.9595 5.36874 14.9202 5.72792 14.8031C6.08709 14.6859 6.41373 14.4939 6.6836 14.2413C6.95348 13.9886 7.15966 13.6819 7.28687 13.3437C7.41407 13.0055 7.45903 12.6446 7.41841 12.2878C7.37778 11.931 7.25262 11.5874 7.0522 11.2825C7.05206 11.2807 7.05206 11.279 7.0522 11.2772L11.9987 6.60484C11.9987 6.60484 11.9987 6.60484 12.0057 6.60484C12.5165 6.90871 13.1255 7.03015 13.7228 6.94724C14.3201 6.86433 14.8663 6.58254 15.263 6.15271C15.6596 5.72288 15.8806 5.17332 15.8859 4.60318C15.8912 4.03304 15.6807 3.47987 15.2921 3.04347H15.2893ZM14.4055 5.45203C14.1855 5.68989 13.883 5.84595 13.5522 5.89219C13.2215 5.93844 12.8841 5.87185 12.6006 5.70437C12.3847 5.57503 12.1287 5.51896 11.8746 5.5454C11.6206 5.57183 11.3836 5.67919 11.2027 5.8498L6.25275 10.5248C6.07254 10.6959 5.95938 10.9199 5.93191 11.1598C5.90443 11.3998 5.96427 11.6414 6.10157 11.845C6.2213 12.0268 6.29267 12.2334 6.30961 12.4469C6.32655 12.6605 6.28856 12.8748 6.19887 13.0715C6.10918 13.2682 5.97045 13.4415 5.79452 13.5766C5.61859 13.7117 5.41067 13.8046 5.18849 13.8475C4.9663 13.8903 4.73645 13.8817 4.51853 13.8225C4.3006 13.7633 4.10107 13.6552 3.93695 13.5074C3.77282 13.3597 3.64896 13.1766 3.57594 12.9738C3.50292 12.7711 3.4829 12.5546 3.51759 12.343C3.53019 12.2672 3.52524 12.1897 3.50307 12.1158C3.48091 12.0419 3.44206 11.9735 3.3892 11.9152C3.33634 11.8569 3.27073 11.8101 3.19688 11.778C3.12303 11.7459 3.0427 11.7293 2.96142 11.7294C2.93246 11.7296 2.90355 11.7319 2.87493 11.7361C2.65107 11.7686 2.42221 11.7495 2.20781 11.6806C1.99341 11.6116 1.79982 11.4947 1.64352 11.3399C1.48721 11.1851 1.37281 10.9969 1.31004 10.7914C1.24728 10.5859 1.238 10.3691 1.28301 10.1594C1.32802 9.94978 1.42599 9.7535 1.56856 9.58729C1.71114 9.42109 1.89412 9.28986 2.10193 9.20479C2.30974 9.11971 2.53623 9.0833 2.76214 9.09866C2.98805 9.11401 3.20669 9.18067 3.39947 9.29297C3.61529 9.42231 3.87132 9.47838 4.1254 9.45194C4.37947 9.42551 4.61644 9.31815 4.79728 9.14754L9.74728 4.47254C9.9268 4.3016 10.0395 4.07814 10.067 3.83877C10.0945 3.59941 10.035 3.35833 9.89845 3.15504C9.77873 2.97315 9.70735 2.76663 9.69041 2.55306C9.67347 2.3395 9.71147 2.12523 9.80116 1.92853C9.89085 1.73183 10.0296 1.55853 10.2055 1.42341C10.3814 1.28829 10.5894 1.19536 10.8115 1.15254C11.0337 1.10971 11.2636 1.11827 11.4815 1.17747C11.6994 1.23668 11.899 1.34478 12.0631 1.49256C12.2272 1.64034 12.3511 1.82341 12.4241 2.02616C12.4971 2.22892 12.5171 2.44535 12.4824 2.65699C12.4687 2.73965 12.4759 2.82419 12.5034 2.90373C12.5308 2.98327 12.5778 3.05557 12.6404 3.11472C12.7031 3.17388 12.7796 3.21823 12.8638 3.24416C12.9481 3.27009 13.0376 3.27687 13.1251 3.26394C13.4114 3.22018 13.7051 3.26112 13.9659 3.38115C14.2266 3.50119 14.4417 3.69444 14.5816 3.93442C14.7215 4.17441 14.7794 4.44939 14.7474 4.72167C14.7153 4.99395 14.5949 5.25022 14.4027 5.45535L14.4055 5.45203Z" fill="#BDBBBB"/>
</svg>
