<svg width="18" height="17" viewBox="0 0 18 17" fill="none" xmlns="http://www.w3.org/2000/svg">
<path d="M17.6542 7.3125L12.6474 2.27156C11.3102 0.937055 9.49818 0.187561 7.60902 0.187561C5.71985 0.187561 3.90785 0.937055 2.57068 2.27156L2.564 2.27824L1.54201 3.33437C1.43614 3.44815 1.3791 3.59889 1.38313 3.75425C1.38716 3.90961 1.45194 4.05719 1.56357 4.16532C1.67519 4.27345 1.82477 4.3335 1.98017 4.33259C2.13558 4.33167 2.28443 4.26986 2.39478 4.16043L3.4138 3.10801C3.82378 2.69811 4.29163 2.35054 4.80244 2.07636L8.25361 5.53125L1.12861 12.6562C1.01831 12.7665 0.930814 12.8974 0.87112 13.0415C0.811425 13.1856 0.780701 13.3401 0.780701 13.496C0.780701 13.652 0.811425 13.8064 0.87112 13.9505C0.930814 14.0946 1.01831 14.2255 1.12861 14.3358L2.66419 15.8714C2.77447 15.9817 2.90539 16.0692 3.04948 16.1289C3.19357 16.1886 3.34801 16.2193 3.50398 16.2193C3.65995 16.2193 3.81439 16.1886 3.95848 16.1289C4.10257 16.0692 4.23349 15.9817 4.34376 15.8714L11.4688 8.7464L12.5331 9.8107L13.8438 11.1199C13.954 11.2302 14.085 11.3177 14.229 11.3774C14.3731 11.4371 14.5276 11.4678 14.6835 11.4678C14.8395 11.4678 14.994 11.4371 15.138 11.3774C15.2821 11.3177 15.4131 11.2302 15.5233 11.1199L17.6527 8.99058C17.8752 8.76813 18.0003 8.46648 18.0006 8.15185C18.0009 7.83722 17.8763 7.53534 17.6542 7.3125ZM3.50361 15.0312L1.96876 13.4957L7.01564 8.44879L8.55048 9.98437L3.50361 15.0312ZM11.0487 7.48469L9.39064 9.14347L7.85505 7.60937L9.51384 5.95058C9.56905 5.89544 9.61284 5.82996 9.64272 5.75788C9.6726 5.6858 9.68798 5.60853 9.68798 5.53051C9.68798 5.45248 9.6726 5.37521 9.64272 5.30313C9.61284 5.23105 9.56905 5.16557 9.51384 5.11043L6.00033 1.59765C7.01544 1.31176 8.08838 1.3014 9.10883 1.56763C10.1293 1.83386 11.0604 2.36708 11.8065 3.11246L15.0884 6.41593L12.9531 8.54898L11.8888 7.48469C11.8337 7.42948 11.7682 7.38569 11.6961 7.35581C11.6241 7.32593 11.5468 7.31055 11.4688 7.31055C11.3907 7.31055 11.3135 7.32593 11.2414 7.35581C11.1693 7.38569 11.1038 7.42948 11.0487 7.48469ZM14.6854 10.2798L13.7948 9.38914L15.9219 7.25683L16.8125 8.14746L14.6854 10.2798Z" fill="#BDBBBB"/>
</svg>
