<svg width="15" height="14" viewBox="0 0 15 14" fill="none" xmlns="http://www.w3.org/2000/svg">
<path d="M5.91667 5.125C5.91667 5.33211 5.73944 5.5 5.52083 5.5C5.30222 5.5 5.125 5.33211 5.125 5.125C5.125 4.91789 5.30222 4.75 5.52083 4.75C5.73944 4.75 5.91667 4.91789 5.91667 5.125Z" stroke="#BDBBBB" stroke-width="1.5" stroke-linecap="round" stroke-linejoin="round"/>
<path d="M9.87498 8.875C9.87498 9.08208 9.69773 9.25 9.47915 9.25C9.26057 9.25 9.08331 9.08208 9.08331 8.875C9.08331 8.66792 9.26057 8.5 9.47915 8.5C9.69773 8.5 9.87498 8.66792 9.87498 8.875Z" stroke="#BDBBBB" stroke-width="1.5" stroke-linecap="round" stroke-linejoin="round"/>
<path d="M8.3379 1.22089C8.50225 1.12068 8.58443 1.07057 8.65108 1.03792C9.49342 0.625347 10.527 1.00191 10.8605 1.84285C10.8868 1.90938 10.9124 1.99875 10.9635 2.17746C10.9871 2.25998 10.9989 2.30124 11.0121 2.3392C11.1719 2.79907 11.5561 3.15762 12.0438 3.30201C12.0841 3.31393 12.1278 3.32449 12.2153 3.34561L12.3341 3.37428C12.7449 3.47351 12.9504 3.52312 13.1004 3.59361C13.7824 3.91402 14.1272 4.64886 13.9213 5.34316C13.876 5.49591 13.7772 5.67364 13.5797 6.02907L13.5226 6.13182C13.4806 6.20742 13.4595 6.24529 13.4419 6.28159C13.2282 6.72132 13.2517 7.23177 13.505 7.65229C13.5259 7.68694 13.5503 7.72294 13.5992 7.79479C13.7049 7.95049 13.7578 8.02834 13.7923 8.09149C14.2278 8.88949 13.8303 9.86869 12.9426 10.1846C12.8724 10.2096 12.7781 10.2338 12.5895 10.2822C12.5024 10.3046 12.4588 10.3158 12.4187 10.3283C11.9333 10.4796 11.5548 10.8436 11.4024 11.3057C11.3899 11.3439 11.3787 11.3853 11.3564 11.4681L11.3261 11.5806C11.2214 11.9699 11.1691 12.1645 11.0946 12.3066C10.7564 12.9528 9.98077 13.2794 9.24792 13.0843C9.08666 13.0414 8.89903 12.9478 8.52386 12.7606L8.41548 12.7065C8.3356 12.6667 8.2957 12.6468 8.25739 12.6301C7.79315 12.4277 7.25435 12.45 6.81054 12.6899C6.77388 12.7098 6.73596 12.7329 6.66004 12.7791C6.49569 12.8793 6.41352 12.9294 6.34686 12.9621C5.50457 13.3747 4.47096 12.9981 4.13748 12.1572C4.11111 12.0906 4.08554 12.0013 4.03441 11.8226C4.0108 11.74 3.99901 11.6988 3.98582 11.6608C3.82607 11.201 3.44185 10.8424 2.95408 10.698C2.91382 10.6861 2.8701 10.6755 2.78265 10.6544L2.66393 10.6257C2.25304 10.5265 2.04759 10.4769 1.89755 10.4064C1.21555 10.086 0.870774 9.35119 1.07667 8.65684C1.12197 8.50414 1.22075 8.32639 1.41831 7.97097L1.47539 7.86822C1.51744 7.79262 1.53846 7.75474 1.5561 7.71844C1.76977 7.27872 1.74626 6.76827 1.49296 6.34774C1.47205 6.31309 1.44764 6.27709 1.39879 6.20524C1.29301 6.04954 1.24012 5.97169 1.20567 5.90854C0.770169 5.11056 1.16766 4.13136 2.05531 3.81544C2.12554 3.79044 2.21987 3.76623 2.40852 3.71778C2.49561 3.69543 2.53916 3.68424 2.57924 3.67175C3.06465 3.52041 3.44312 3.15641 3.59554 2.69432C3.60812 2.65617 3.61927 2.61475 3.64156 2.53191L3.67182 2.41944C3.77656 2.03017 3.82893 1.83554 3.90334 1.69339C4.24155 1.0473 5.01721 0.720657 5.75008 0.915717C5.91132 0.958632 6.09891 1.05222 6.47408 1.23938L6.58254 1.29345C6.66234 1.33329 6.70232 1.3532 6.74063 1.36991C7.20479 1.57234 7.7436 1.55007 8.18748 1.3101C8.22406 1.29029 8.26206 1.26716 8.3379 1.22089Z" stroke="#BDBBBB" stroke-width="1.5" stroke-linecap="round" stroke-linejoin="round"/>
<path d="M5.52081 8.875L9.47915 5.125" stroke="#BDBBBB" stroke-width="1.5" stroke-linecap="round" stroke-linejoin="round"/>
<path d="M8.3379 1.22089C8.50225 1.12068 8.58443 1.07057 8.65108 1.03792C9.49342 0.625347 10.527 1.00191 10.8605 1.84285C10.8868 1.90938 10.9124 1.99875 10.9635 2.17746C10.9871 2.25998 10.9989 2.30124 11.0121 2.3392C11.1719 2.79907 11.5561 3.15762 12.0438 3.30201C12.0841 3.31393 12.1278 3.32449 12.2153 3.34561L12.3341 3.37428C12.7449 3.47351 12.9504 3.52312 13.1004 3.59361C13.7824 3.91402 14.1272 4.64886 13.9213 5.34316C13.876 5.49591 13.7772 5.67364 13.5797 6.02907L13.5226 6.13182C13.4806 6.20742 13.4595 6.24529 13.4419 6.28159C13.2282 6.72132 13.2517 7.23177 13.505 7.65229C13.5259 7.68694 13.5503 7.72294 13.5992 7.79479C13.7049 7.95049 13.7578 8.02834 13.7923 8.09149C14.2278 8.88949 13.8303 9.86869 12.9426 10.1846C12.8724 10.2096 12.7781 10.2338 12.5895 10.2822C12.5024 10.3046 12.4588 10.3158 12.4187 10.3283C11.9333 10.4796 11.5548 10.8436 11.4024 11.3057C11.3899 11.3439 11.3787 11.3853 11.3564 11.4681L11.3261 11.5806C11.2214 11.9699 11.1691 12.1645 11.0946 12.3066C10.7564 12.9528 9.98077 13.2794 9.24792 13.0843C9.08666 13.0414 8.89903 12.9478 8.52386 12.7606L8.41548 12.7065C8.3356 12.6667 8.2957 12.6468 8.25739 12.6301C7.79315 12.4277 7.25435 12.45 6.81054 12.6899C6.77388 12.7098 6.73596 12.7329 6.66004 12.7791C6.49569 12.8793 6.41352 12.9294 6.34686 12.9621C5.50457 13.3747 4.47096 12.9981 4.13748 12.1572C4.11111 12.0906 4.08554 12.0013 4.03441 11.8226C4.0108 11.74 3.99901 11.6988 3.98582 11.6608C3.82607 11.201 3.44185 10.8424 2.95408 10.698C2.91382 10.6861 2.8701 10.6755 2.78265 10.6544L2.66393 10.6257C2.25304 10.5265 2.04759 10.4769 1.89755 10.4064C1.21555 10.086 0.870774 9.35119 1.07667 8.65684C1.12197 8.50414 1.22075 8.32639 1.41831 7.97097L1.47539 7.86822C1.51744 7.79262 1.53846 7.75474 1.5561 7.71844C1.76977 7.27872 1.74626 6.76827 1.49296 6.34774C1.47205 6.31309 1.44764 6.27709 1.39879 6.20524C1.29301 6.04954 1.24012 5.97169 1.20567 5.90854C0.770169 5.11056 1.16766 4.13136 2.05531 3.81544C2.12554 3.79044 2.21987 3.76623 2.40852 3.71778C2.49561 3.69543 2.53916 3.68424 2.57924 3.67175C3.06465 3.52041 3.44312 3.15641 3.59554 2.69432C3.60812 2.65617 3.61927 2.61475 3.64156 2.53191L3.67182 2.41944C3.77656 2.03017 3.82893 1.83554 3.90334 1.69339C4.24155 1.0473 5.01721 0.720657 5.75008 0.915717C5.91132 0.958632 6.09891 1.05222 6.47408 1.23938L6.58254 1.29345C6.66234 1.33329 6.70232 1.3532 6.74063 1.36991C7.20479 1.57234 7.7436 1.55007 8.18748 1.3101C8.22406 1.29029 8.26206 1.26716 8.3379 1.22089Z" stroke="#BDBBBB" stroke-width="1.5" stroke-linecap="round" stroke-linejoin="round"/>
<path d="M5.91667 5.125C5.91667 5.33211 5.73944 5.5 5.52083 5.5C5.30222 5.5 5.125 5.33211 5.125 5.125C5.125 4.91789 5.30222 4.75 5.52083 4.75C5.73944 4.75 5.91667 4.91789 5.91667 5.125Z" stroke="#BDBBBB" stroke-width="1.5" stroke-linecap="round" stroke-linejoin="round"/>
<path d="M5.52081 8.875L9.47915 5.125" stroke="#BDBBBB" stroke-width="1.5" stroke-linecap="round" stroke-linejoin="round"/>
<path d="M9.87498 8.875C9.87498 9.08208 9.69773 9.25 9.47915 9.25C9.26057 9.25 9.08331 9.08208 9.08331 8.875C9.08331 8.66792 9.26057 8.5 9.47915 8.5C9.69773 8.5 9.87498 8.66792 9.87498 8.875Z" stroke="#BDBBBB" stroke-width="1.5" stroke-linecap="round" stroke-linejoin="round"/>
</svg>
