<svg width="15" height="15" viewBox="0 0 15 15" fill="none" xmlns="http://www.w3.org/2000/svg">
<path d="M5.12498 1.20195C2.58054 2.16194 0.770813 4.61963 0.770813 7.50001C0.770813 11.2164 3.78356 14.2292 7.49998 14.2292C8.64481 14.2292 9.7229 13.9433 10.6666 13.439M5.12498 1.20195C5.86351 0.923311 6.66398 0.770844 7.49998 0.770844C11.2164 0.770844 14.2291 3.78359 14.2291 7.50001C14.2291 10.0716 12.7867 12.3063 10.6666 13.439M5.12498 1.20195C5.12498 1.20195 7.29953 3.93751 8.68748 7.10418C10.0754 10.2708 10.6666 13.439 10.6666 13.439M12.25 2.75001C12.25 2.75001 11.0625 4.72918 7.49998 5.91668C3.93748 7.10418 0.800817 6.86034 0.800817 6.86034M2.92542 12.4351C2.92542 12.4351 4.33331 9.47918 7.89581 8.29168C11.4583 7.10418 14.1831 8.29168 14.1831 8.29168" stroke="#BDBBBB" stroke-width="1.5" stroke-linecap="round" stroke-linejoin="round"/>
</svg>
