<svg width="16" height="16" viewBox="0 0 16 16" fill="none" xmlns="http://www.w3.org/2000/svg">
<path d="M7.84227 5.04366L4.26237 1.46375C3.64405 0.845417 2.64154 0.845417 2.02321 1.46375L1.4654 2.02156C0.846291 2.64066 0.847186 3.6447 1.46739 4.26271L5.0102 7.79294M7.98683 10.7861L11.5397 14.339C12.158 14.9573 13.1605 14.9573 13.7788 14.339L14.3387 13.7792C14.957 13.1608 14.957 12.1583 14.3387 11.5401L10.8508 8.05221M13.4929 11.2659L12.3734 12.3855M11.7016 9.47452L10.5821 10.5941M6.32765 4.10053L5.20805 5.22012M4.5363 2.30919L3.41671 3.42878M10.6665 2.76136L13.0415 5.13636M13.6248 1.50594L14.2969 2.17806C14.9153 2.79639 14.9153 3.7989 14.2969 4.41724L5.40188 13.3123C5.22807 13.4861 5.01618 13.617 4.783 13.6947L1.52169 14.7819C1.21225 14.885 0.91785 14.5906 1.021 14.2811L2.1081 11.0199C2.18583 10.7866 2.31679 10.5748 2.4906 10.4009L11.3856 1.50594C12.004 0.887613 13.0065 0.887613 13.6248 1.50594Z" stroke="#BDBBBB" stroke-width="1.5" stroke-linecap="round" stroke-linejoin="round"/>
</svg>
