<svg width="15" height="14" viewBox="0 0 15 14" fill="none" xmlns="http://www.w3.org/2000/svg">
<path d="M2.36842 6.41935H12.6316M2.36842 6.41935C1.61266 6.41935 1 7.11257 1 7.96774V11.0645H1.8125M2.36842 6.41935L3.63749 2.06359C3.82242 1.42884 4.34643 1 4.9371 1H10.0629C10.6536 1 11.1776 1.42884 11.3625 2.06359L12.6316 6.41935M12.6316 6.41935C13.3874 6.41935 14 7.11257 14 7.96774V11.0645H13.1875M1.8125 11.0645V12.2984C1.8125 12.6859 2.09011 13 2.43257 13C2.77502 13 3.05263 12.6859 3.05263 12.2984V11.0645M1.8125 11.0645H3.05263M13.1875 11.0645V12.2984C13.1875 12.6859 12.9099 13 12.5674 13C12.225 13 11.9474 12.6859 11.9474 12.2984V11.0645M13.1875 11.0645H11.9474M11.9474 11.0645H3.05263M4.07895 8.74194C4.07895 8.95569 3.92578 9.12903 3.73684 9.12903C3.5479 9.12903 3.39474 8.95569 3.39474 8.74194C3.39474 8.52818 3.5479 8.35484 3.73684 8.35484C3.92578 8.35484 4.07895 8.52818 4.07895 8.74194ZM11.6053 8.74194C11.6053 8.95569 11.4521 9.12903 11.2632 9.12903C11.0742 9.12903 10.9211 8.95569 10.9211 8.74194C10.9211 8.52818 11.0742 8.35484 11.2632 8.35484C11.4521 8.35484 11.6053 8.52818 11.6053 8.74194Z" stroke="#BDBBBB" stroke-width="1.5" stroke-linecap="round" stroke-linejoin="round"/>
</svg>
