<svg width="30" height="30" viewBox="0 0 30 30" fill="none" xmlns="http://www.w3.org/2000/svg">
<path fill-rule="evenodd" clip-rule="evenodd" d="M6.25001 11.875C6.25001 15.287 8.66453 20.2511 13.4936 26.7675C14.1101 27.5995 15.2844 27.7741 16.1164 27.1575C16.2649 27.0475 16.3964 26.916 16.5064 26.7675C21.3355 20.2511 23.75 15.287 23.75 11.875C23.75 7.03753 19.8375 3.12503 15 3.12503C10.1625 3.12503 6.25001 7.03753 6.25001 11.875ZM11.875 11.875C11.875 10.15 13.275 8.75003 15 8.75003C16.725 8.75003 18.125 10.15 18.125 11.875C18.125 13.6 16.725 15 15 15C13.275 15 11.875 13.6 11.875 11.875Z" fill="white"/>
</svg>
