<svg width="20" height="30" viewBox="0 0 20 30" fill="none" xmlns="http://www.w3.org/2000/svg">
<path fill-rule="evenodd" clip-rule="evenodd" d="M0 10.7577C0 14.9525 2.75945 21.0556 8.27835 29.0671C8.98299 30.09 10.325 30.3047 11.2758 29.5467C11.4456 29.4114 11.5958 29.2498 11.7216 29.0671C17.2405 21.0556 20 14.9525 20 10.7577C20 4.81021 15.5286 0 10 0C4.47143 0 0 4.81021 0 10.7577ZM6.42857 10.7577C6.42857 8.63687 8.02857 6.91564 10 6.91564C11.9714 6.91564 13.5714 8.63687 13.5714 10.7577C13.5714 12.8785 11.9714 14.5997 10 14.5997C8.02857 14.5997 6.42857 12.8785 6.42857 10.7577Z" fill="white"/>
</svg>
