<svg width="17" height="16" viewBox="0 0 17 16" fill="none" xmlns="http://www.w3.org/2000/svg">
<path d="M9.03129 7.5V11C9.03129 11.1326 8.97532 11.2598 8.87569 11.3536C8.77606 11.4473 8.64093 11.5 8.50004 11.5C8.35914 11.5 8.22401 11.4473 8.12438 11.3536C8.02476 11.2598 7.96879 11.1326 7.96879 11V7.5C7.96879 7.36739 8.02476 7.24021 8.12438 7.14645C8.22401 7.05268 8.35914 7 8.50004 7C8.64093 7 8.77606 7.05268 8.87569 7.14645C8.97532 7.24021 9.03129 7.36739 9.03129 7.5ZM11.4777 7.45L11.1058 10.95C11.0985 11.0155 11.105 11.0818 11.1249 11.1449C11.1448 11.2081 11.1779 11.2669 11.2221 11.318C11.2662 11.3692 11.3207 11.4115 11.3824 11.4428C11.444 11.474 11.5116 11.4934 11.5813 11.5C11.5992 11.5009 11.6172 11.5009 11.6351 11.5C11.7667 11.4998 11.8935 11.4537 11.991 11.3706C12.0886 11.2875 12.1498 11.1732 12.163 11.05L12.5349 7.55C12.549 7.41805 12.5068 7.28625 12.4176 7.18357C12.3285 7.08089 12.1996 7.01576 12.0594 7.0025C11.9192 6.98924 11.7792 7.02894 11.6701 7.11286C11.561 7.19678 11.4918 7.31805 11.4777 7.45ZM5.52238 7.45C5.50829 7.31805 5.43909 7.19678 5.32999 7.11286C5.2209 7.02894 5.08085 6.98924 4.94066 7.0025C4.80047 7.01576 4.67162 7.08089 4.58245 7.18357C4.49328 7.28625 4.4511 7.41805 4.46519 7.55L4.83707 11.05C4.85028 11.1738 4.91203 11.2884 5.01027 11.3717C5.1085 11.4549 5.23616 11.5006 5.36832 11.5C5.38623 11.5009 5.40419 11.5009 5.42211 11.5C5.49152 11.4934 5.55888 11.4741 5.62035 11.443C5.68181 11.4119 5.73617 11.3698 5.78032 11.3189C5.82447 11.2681 5.85755 11.2096 5.87767 11.1467C5.89779 11.0838 5.90455 11.0178 5.89757 10.9525L5.52238 7.45ZM15.9329 5.56625L14.9321 12.6325C14.8972 12.8723 14.7714 13.0922 14.5779 13.2516C14.3844 13.411 14.1361 13.4992 13.8789 13.5H3.12113C2.86395 13.4992 2.61572 13.411 2.42218 13.2516C2.22865 13.0922 2.10284 12.8723 2.06793 12.6325L1.06718 5.56625C1.05715 5.49562 1.06328 5.42378 1.08515 5.35556C1.10702 5.28734 1.14413 5.22431 1.194 5.17069C1.24386 5.11707 1.30533 5.0741 1.37428 5.04466C1.44323 5.01522 1.51807 4.99999 1.59379 5H4.54023L8.1016 1.17062C8.15145 1.11742 8.21276 1.07481 8.28146 1.04562C8.35016 1.01644 8.42466 1.00134 8.50004 1.00134C8.57541 1.00134 8.64992 1.01644 8.71861 1.04562C8.78731 1.07481 8.84862 1.11742 8.89847 1.17062L12.4598 5H15.4063C15.482 4.99999 15.5568 5.01522 15.6258 5.04466C15.6947 5.0741 15.7562 5.11707 15.8061 5.17069C15.8559 5.22431 15.8931 5.28734 15.9149 5.35556C15.9368 5.42378 15.9429 5.49562 15.9329 5.56625ZM5.95203 5H11.048L8.50004 2.25937L5.95203 5ZM14.7993 6H2.20074L3.12113 12.5H13.8789L14.7993 6Z" fill="#B4B0B0"/>
</svg>
