<svg width="27" height="27" viewBox="0 0 27 27" fill="none" xmlns="http://www.w3.org/2000/svg">
<path d="M15.0019 9.86734C15.093 10.0253 15.2242 10.1564 15.3821 10.2476C15.54 10.3387 15.7191 10.3867 15.9014 10.3867L25.2476 10.3867C25.4132 10.3857 25.5761 10.3452 25.7228 10.2685C25.8696 10.1918 25.9958 10.0811 26.0911 9.94569C26.1864 9.81026 26.2479 9.654 26.2705 9.48996C26.2931 9.32592 26.2762 9.15884 26.2212 9.00267C25.1484 5.97109 23.0296 3.42165 20.2458 1.81265C17.4619 0.203657 14.1954 -0.359366 11.0337 0.224798C10.8702 0.255077 10.7163 0.324183 10.5851 0.426303C10.4538 0.528423 10.349 0.660572 10.2795 0.811634C10.2158 0.947769 10.183 1.09628 10.1834 1.24657C10.1833 1.42887 10.2312 1.60797 10.3223 1.76589L15.0019 9.86734ZM23.6743 8.30937L16.5012 8.30937L12.9146 2.09307C13.1106 2.07749 13.3079 2.07749 13.5 2.07749C15.605 2.07933 17.6687 2.6621 19.4638 3.76165C21.259 4.86119 22.7159 6.43485 23.6743 8.30937ZM27 13.5026C27 13.2271 26.8906 12.963 26.6958 12.7682C26.5011 12.5734 26.237 12.464 25.9615 12.464L14.0426 12.464L8.08312 2.23198C8.01431 2.11325 7.92265 2.00933 7.81344 1.92624C7.70423 1.84315 7.57964 1.78252 7.44687 1.74788C7.3141 1.71323 7.17577 1.70524 7.0399 1.72438C6.90402 1.74352 6.77328 1.7894 6.65524 1.85937C4.61687 3.05863 2.92923 4.7724 1.76128 6.82911C0.59333 8.88583 -0.0139465 11.2133 0.000242233 13.5786C0.0144329 15.9439 0.64959 18.2639 1.84213 20.3064C3.03467 22.349 4.74275 24.0424 6.79536 25.2171C8.84798 26.3918 11.1731 27.0066 13.538 26.9999C15.9029 26.9933 18.2245 26.3654 20.2705 25.1792C22.3164 23.9929 24.015 22.29 25.196 20.2407C26.377 18.1915 26.9991 15.8679 27 13.5026ZM2.07692 13.5026C2.08178 11.6895 2.51574 9.9032 3.3433 8.28998C4.17086 6.67676 5.36851 5.28241 6.83827 4.221L12.5498 14.0258C12.6409 14.1836 12.7718 14.3146 12.9294 14.4057C13.0871 14.4969 13.266 14.545 13.4481 14.5452L24.8763 14.5452C24.6106 17.4747 23.2254 20.1888 21.0091 22.1225C18.7928 24.0562 15.9163 25.0604 12.9783 24.926C10.0403 24.7917 7.26737 23.5291 5.23674 21.4013C3.20611 19.2734 2.0743 16.4442 2.07692 13.5026Z" fill="#A232E8"/>
</svg>
