<svg width="25" height="25" viewBox="0 0 25 25" fill="none" xmlns="http://www.w3.org/2000/svg">
<path d="M12.5 0C16.3784 0 19.5225 2.82648 19.5225 6.31313H19.5986C21.4768 6.31313 22.1579 6.48893 22.8445 6.81907C23.5312 7.1492 24.0699 7.63364 24.4372 8.25093C24.8045 8.86821 25 9.48048 25 11.169V17.3414C25 19.979 24.6903 20.9544 24.109 21.9318C23.5275 22.9092 22.6743 23.6763 21.5871 24.199C20.4999 24.7216 19.4149 25 16.4809 25H8.51916C5.58509 25 4.50009 24.7216 3.41291 24.199C2.32572 23.6763 1.4725 22.9092 0.891068 21.9318C0.309635 20.9544 0 19.979 0 17.3414V11.169C0 9.48048 0.195548 8.86821 0.562781 8.25093C0.930001 7.63364 1.46888 7.1492 2.15552 6.81907C2.84216 6.48893 3.52325 6.31313 5.40144 6.31313H5.47753C5.47753 2.82648 8.62159 0 12.5 0ZM19.8692 8.58684L5.40144 8.58586C4.0707 8.58586 3.71179 8.64816 3.34777 8.82319C3.10169 8.94149 2.92368 9.10152 2.79208 9.32274C2.59739 9.64999 2.52809 9.97264 2.52809 11.169V17.3414C2.52809 19.4058 2.68332 20.1254 3.12037 20.86C3.46618 21.4413 3.95853 21.884 4.60516 22.1948C5.42236 22.5878 6.2228 22.7273 8.51916 22.7273H16.4809C18.7772 22.7273 19.5777 22.5878 20.3948 22.1948C21.0414 21.884 21.5338 21.4413 21.8796 20.86C22.3167 20.1254 22.4719 19.4058 22.4719 17.3414V11.169C22.4719 9.97264 22.4027 9.64999 22.2079 9.32274C22.0763 9.10152 21.8983 8.94149 21.6522 8.82319C21.3142 8.66066 20.9806 8.59533 19.8692 8.58684ZM18.0421 9.97475C18.3306 9.97475 18.531 10.0187 18.7027 10.1012C18.8743 10.1838 19.0091 10.3049 19.1008 10.4592C19.1927 10.6135 19.2416 10.7937 19.2416 11.053V11.1692C19.2416 11.4285 19.1927 11.6087 19.1008 11.763C19.0091 11.9173 18.8743 12.0385 18.7027 12.121C18.531 12.2035 18.3306 12.2475 18.0421 12.2475H17.9129C17.6244 12.2475 17.424 12.2035 17.2524 12.121C17.0808 12.0385 16.9459 11.9173 16.8542 11.763C16.7624 11.6087 16.7135 11.4285 16.7135 11.1692V11.053C16.7135 10.7937 16.7624 10.6135 16.8542 10.4592C16.9459 10.3049 17.0808 10.1838 17.2524 10.1012C17.424 10.0187 17.6244 9.97475 17.9129 9.97475H18.0421ZM6.8062 9.97475C7.09461 9.97475 7.29507 10.0187 7.46673 10.1012C7.6384 10.1838 7.77312 10.3049 7.86492 10.4592C7.95673 10.6135 8.00562 10.7937 8.00562 11.053V11.1692C8.00562 11.4285 7.95673 11.6087 7.86492 11.763C7.77312 11.9173 7.6384 12.0385 7.46673 12.121C7.29507 12.2035 7.09461 12.2475 6.8062 12.2475H6.67694C6.38853 12.2475 6.18807 12.2035 6.01641 12.121C5.84475 12.0385 5.71003 11.9173 5.61822 11.763C5.52642 11.6087 5.47753 11.4285 5.47753 11.1692V11.053C5.47753 10.7937 5.52642 10.6135 5.61822 10.4592C5.71003 10.3049 5.84475 10.1838 6.01641 10.1012C6.18807 10.0187 6.38853 9.97475 6.67694 9.97475H6.8062ZM12.5 2.27273C10.0178 2.27273 8.00562 4.08168 8.00562 6.31313H16.9944C16.9944 4.08168 14.9822 2.27273 12.5 2.27273Z" fill="white"/>
</svg>
