<svg width="200" height="200" viewBox="0 0 200 200" fill="none" xmlns="http://www.w3.org/2000/svg">
<rect width="200" height="200" rx="20" fill="url(#paint0_linear_226_229)"/>
<path d="M107.512 79L92.056 128.632H78.328L69.112 96.088L59.992 128.632H46.36L31 79H45.208L53.848 109.336L62.488 79H76.024L84.664 109.432L93.208 79H107.512Z" fill="white"/>
<path d="M163.512 104C163.512 117.807 152.095 129 138.012 129C123.929 129 112.512 117.807 112.512 104C112.512 90.1929 123.929 79 138.012 79C152.095 79 163.512 90.1929 163.512 104ZM124.315 104C124.315 111.416 130.447 117.428 138.012 117.428C145.576 117.428 151.709 111.416 151.709 104C151.709 96.5839 145.576 90.5719 138.012 90.5719C130.447 90.5719 124.315 96.5839 124.315 104Z" fill="white"/>
<path d="M112.5 54H122.5V104H112.5V54Z" fill="white"/>
<defs>
<linearGradient id="paint0_linear_226_229" x1="0" y1="100" x2="200" y2="100" gradientUnits="userSpaceOnUse">
<stop stop-color="#C800A1"/>
<stop offset="0.5" stop-color="#981E97"/>
<stop offset="1" stop-color="#470A68"/>
</linearGradient>
</defs>
</svg>
