<svg width="676" height="102" viewBox="0 0 676 102" fill="none" xmlns="http://www.w3.org/2000/svg">
<path d="M243.848 70.0808C243.848 87.4778 229.521 101.581 211.848 101.581C194.175 101.581 179.848 87.4778 179.848 70.0808C179.848 52.6838 194.175 38.5808 211.848 38.5808C229.521 38.5808 243.848 52.6838 243.848 70.0808ZM194.66 70.0808C194.66 79.4252 202.355 87.0002 211.848 87.0002C221.341 87.0002 229.036 79.4252 229.036 70.0808C229.036 60.7365 221.341 53.1614 211.848 53.1614C202.355 53.1614 194.66 60.7365 194.66 70.0808Z" fill="white"/>
<path d="M319.848 70.0808C319.848 87.4778 305.521 101.581 287.848 101.581C270.175 101.581 255.848 87.4778 255.848 70.0808C255.848 52.6838 270.175 38.5808 287.848 38.5808C305.521 38.5808 319.848 52.6838 319.848 70.0808ZM270.66 70.0808C270.66 79.4252 278.355 87.0002 287.848 87.0002C297.341 87.0002 305.036 79.4252 305.036 70.0808C305.036 60.7365 297.341 53.1614 287.848 53.1614C278.355 53.1614 270.66 60.7365 270.66 70.0808Z" fill="white"/>
<rect x="255.848" y="6.58081" width="14" height="65" fill="white"/>
<path d="M195.501 6.7359L208.354 6.7453L239.348 54.0808L230.677 64.8946L195.501 6.7359Z" fill="white"/>
<path d="M102.016 33.824L81.408 100H63.104L50.816 56.608L38.656 100H20.48L0 33.824H18.944L30.464 74.272L41.984 33.824H60.032L71.552 74.4L82.944 33.824H102.016Z" fill="white"/>
<path d="M129.85 33.824V100H111.162V33.824H129.85ZM112.826 7.19999C114.874 5.15199 117.391 4.12799 120.378 4.12799C123.365 4.12799 125.882 5.15199 127.93 7.19999C130.063 9.24799 131.13 11.7227 131.13 14.624C131.13 17.6107 130.063 20.128 127.93 22.176C125.882 24.224 123.365 25.248 120.378 25.248C117.391 25.248 114.874 24.224 112.826 22.176C110.778 20.128 109.754 17.6107 109.754 14.624C109.754 11.6373 110.778 9.16266 112.826 7.19999Z" fill="white"/>
<path d="M164.725 6.94398V100H146.037V6.94398H164.725Z" fill="white"/>
<path d="M397.816 72.224H353.144V72.48C353.144 76.576 354.509 79.9893 357.24 82.72C360.056 85.4507 363.683 86.816 368.12 86.816C371.021 86.816 373.453 86.2187 375.416 85.024C377.379 83.8293 378.616 82.5067 379.128 81.056H397.176C396.152 86.432 393.123 91.2107 388.088 95.392C383.139 99.488 376.355 101.536 367.736 101.536C357.581 101.536 349.475 98.5067 343.416 92.448C337.357 86.304 334.328 77.8987 334.328 67.232C334.328 56.5653 337.272 48.0747 343.16 41.76C349.133 35.4453 356.984 32.288 366.712 32.288C376.184 32.288 383.736 35.3173 389.368 41.376C395 47.4347 397.816 55.584 397.816 65.824V72.224ZM366.84 46.88C363.085 46.88 360.013 47.9893 357.624 50.208C355.235 52.3413 353.784 55.328 353.272 59.168H379.64C379.384 55.4133 378.104 52.4267 375.8 50.208C373.496 47.9893 370.509 46.88 366.84 46.88Z" fill="white"/>
<path d="M447.532 33.568H450.86V51.232H446.508C440.961 51.232 436.652 52.5973 433.58 55.328C430.593 57.9733 429.1 61.6853 429.1 66.464V100H410.412V33.824H428.332V44.192C432.257 37.1093 438.657 33.568 447.532 33.568Z" fill="white"/>
<path d="M499.282 33.568H502.61V51.232H498.258C492.711 51.232 488.402 52.5973 485.33 55.328C482.343 57.9733 480.85 61.6853 480.85 66.464V100H462.162V33.824H480.082V44.192C484.007 37.1093 490.407 33.568 499.282 33.568Z" fill="white"/>
<path d="M532.6 33.824V100H513.912V33.824H532.6ZM515.576 7.19999C517.624 5.15199 520.141 4.12799 523.128 4.12799C526.115 4.12799 528.632 5.15199 530.68 7.19999C532.813 9.24799 533.88 11.7227 533.88 14.624C533.88 17.6107 532.813 20.128 530.68 22.176C528.632 24.224 526.115 25.248 523.128 25.248C520.141 25.248 517.624 24.224 515.576 22.176C513.528 20.128 512.504 17.6107 512.504 14.624C512.504 11.6373 513.528 9.16266 515.576 7.19999Z" fill="white"/>
<path d="M608.691 72.224H564.019V72.48C564.019 76.576 565.384 79.9893 568.115 82.72C570.931 85.4507 574.558 86.816 578.995 86.816C581.896 86.816 584.328 86.2187 586.291 85.024C588.254 83.8293 589.491 82.5067 590.003 81.056H608.051C607.027 86.432 603.998 91.2107 598.963 95.392C594.014 99.488 587.23 101.536 578.611 101.536C568.456 101.536 560.35 98.5067 554.291 92.448C548.232 86.304 545.203 77.8987 545.203 67.232C545.203 56.5653 548.147 48.0747 554.035 41.76C560.008 35.4453 567.859 32.288 577.587 32.288C587.059 32.288 594.611 35.3173 600.243 41.376C605.875 47.4347 608.691 55.584 608.691 65.824V72.224ZM577.715 46.88C573.96 46.88 570.888 47.9893 568.499 50.208C566.11 52.3413 564.659 55.328 564.147 59.168H590.515C590.259 55.4133 588.979 52.4267 586.675 50.208C584.371 47.9893 581.384 46.88 577.715 46.88Z" fill="white"/>
<path d="M635.879 80.416C636.903 85.1093 640.743 87.456 647.399 87.456C650.471 87.456 652.86 86.8587 654.567 85.664C656.274 84.384 657.127 82.72 657.127 80.672C657.127 77.6 654.695 75.7227 649.831 75.04L638.567 73.76C625.255 72.1387 618.599 65.6533 618.599 54.304C618.599 47.8187 621.202 42.528 626.407 38.432C631.612 34.336 638.226 32.288 646.247 32.288C654.012 32.288 660.37 34.1227 665.319 37.792C670.354 41.4613 673.298 46.5387 674.151 53.024H656.103C654.823 48.672 651.367 46.496 645.735 46.496C643.004 46.496 640.786 47.136 639.079 48.416C637.458 49.6107 636.647 51.104 636.647 52.896C636.647 56.0533 638.951 57.888 643.559 58.4L655.335 59.808C661.479 60.576 666.343 62.5813 669.927 65.824C673.511 69.0667 675.303 73.632 675.303 79.52C675.303 86.432 672.7 91.8507 667.495 95.776C662.29 99.616 655.591 101.536 647.399 101.536C639.378 101.536 632.594 99.744 627.047 96.16C621.5 92.576 618.386 87.328 617.703 80.416H635.879Z" fill="white"/>
</svg>
