<svg width="47" height="49" viewBox="0 0 47 49" fill="none" xmlns="http://www.w3.org/2000/svg">
<ellipse cx="23.5" cy="24.5" rx="23.5" ry="24.5" fill="#F1F1F5"/>
<path fill-rule="evenodd" clip-rule="evenodd" d="M28.9078 18.75C28.9078 15.5731 26.684 13 23.9385 13C21.193 13 18.9693 15.5731 18.9693 18.75C18.9693 21.9269 21.193 24.5 23.9385 24.5C26.684 24.5 28.9078 21.9269 28.9078 18.75ZM14 33.125V34.5553C14 35.3532 14.559 36 15.2485 36H32.6285C33.318 36 33.877 35.3532 33.877 34.5553V33.125C33.877 28.0938 27.2555 26.6562 23.9385 26.6562C20.6215 26.6562 14 28.0938 14 33.125Z" fill="#B9B8B8"/>
</svg>
