<svg width="27" height="22" viewBox="0 0 27 22" fill="none" xmlns="http://www.w3.org/2000/svg">
<path d="M24.84 4H3.24C2.95357 4 2.67886 3.89464 2.47633 3.70711C2.27379 3.51957 2.16 3.26522 2.16 3C2.16 2.73478 2.27379 2.48043 2.47633 2.29289C2.67886 2.10536 2.95357 2 3.24 2H21.6C21.8864 2 22.1611 1.89464 22.3637 1.70711C22.5662 1.51957 22.68 1.26522 22.68 1C22.68 0.734784 22.5662 0.48043 22.3637 0.292893C22.1611 0.105357 21.8864 0 21.6 0H3.24C2.3807 0 1.55659 0.316071 0.948974 0.87868C0.341356 1.44129 0 2.20435 0 3V19C0 19.7956 0.341356 20.5587 0.948974 21.1213C1.55659 21.6839 2.3807 22 3.24 22H24.84C25.4129 22 25.9623 21.7893 26.3674 21.4142C26.7724 21.0391 27 20.5304 27 20V6C27 5.46957 26.7724 4.96086 26.3674 4.58579C25.9623 4.21071 25.4129 4 24.84 4ZM24.84 20H3.24C2.95357 20 2.67886 19.8946 2.47633 19.7071C2.27379 19.5196 2.16 19.2652 2.16 19V5.82875C2.50678 5.94257 2.87207 6.0005 3.24 6H24.84V20ZM18.36 12.5C18.36 12.2033 18.455 11.9133 18.633 11.6666C18.811 11.42 19.064 11.2277 19.3601 11.1142C19.6561 11.0006 19.9818 10.9709 20.296 11.0288C20.6103 11.0867 20.899 11.2296 21.1255 11.4393C21.3521 11.6491 21.5064 11.9164 21.5689 12.2074C21.6314 12.4983 21.5993 12.7999 21.4767 13.074C21.3541 13.3481 21.1464 13.5824 20.88 13.7472C20.6136 13.912 20.3004 14 19.98 14C19.5504 14 19.1383 13.842 18.8345 13.5607C18.5307 13.2794 18.36 12.8978 18.36 12.5Z" fill="#A232E8"/>
</svg>
