<svg width="19" height="22" viewBox="0 0 19 22" fill="none" xmlns="http://www.w3.org/2000/svg">
<path d="M17.9288 14.7125L10.4891 8.25L12.2302 6.7375C12.3041 6.67355 12.3641 6.59055 12.4055 6.49508C12.4468 6.39962 12.4684 6.2943 12.4685 6.1875C12.4685 5.27582 12.1557 4.40148 11.599 3.75682C11.0422 3.11216 10.2871 2.75 9.49973 2.75C8.71237 2.75 7.95725 3.11216 7.40051 3.75682C6.84376 4.40148 6.53098 5.27582 6.53098 6.1875C6.53098 6.36984 6.59353 6.5447 6.70488 6.67364C6.81623 6.80257 6.96726 6.875 7.12473 6.875C7.2822 6.875 7.43322 6.80257 7.54457 6.67364C7.65592 6.5447 7.71848 6.36984 7.71848 6.1875C7.71968 5.66966 7.88907 5.17129 8.193 4.7914C8.49693 4.41151 8.91315 4.1779 9.35898 4.13699C9.80481 4.09607 10.2476 4.25084 10.5994 4.57055C10.9513 4.89025 11.1863 5.3515 11.258 5.86266L9.15387 7.69055L9.13309 7.70859L1.07071 14.7125C0.871469 14.8855 0.724254 15.1267 0.649885 15.4019C0.575516 15.6771 0.577756 15.9724 0.65629 16.2461C0.734824 16.5197 0.885675 16.7579 1.08751 16.9268C1.28934 17.0958 1.53193 17.187 1.78098 17.1875H17.2185C17.4677 17.1875 17.7106 17.0967 17.9128 16.928C18.115 16.7592 18.2662 16.5211 18.345 16.2473C18.4239 15.9735 18.4263 15.678 18.352 15.4025C18.2776 15.1271 18.1304 14.8857 17.931 14.7125H17.9288ZM17.2185 15.8125H1.78098L9.49973 9.10938L17.2185 15.8125Z" fill="#343330"/>
</svg>
