<svg width="32" height="32" viewBox="0 0 32 32" fill="none" xmlns="http://www.w3.org/2000/svg">
<path d="M16.2927 25.7075C16.1997 25.6146 16.126 25.5043 16.0756 25.3829C16.0253 25.2615 15.9994 25.1314 15.9994 25C15.9994 24.8686 16.0253 24.7385 16.0756 24.6171C16.126 24.4957 16.1997 24.3854 16.2927 24.2925L24.5864 16L16.2927 7.7075C16.105 7.51986 15.9996 7.26536 15.9996 7C15.9996 6.73464 16.105 6.48014 16.2927 6.2925C16.4803 6.10486 16.7348 5.99944 17.0002 5.99944C17.2656 5.99944 17.5201 6.10486 17.7077 6.2925L26.7077 15.2925C26.8007 15.3854 26.8744 15.4957 26.9247 15.6171C26.9751 15.7385 27.001 15.8686 27.001 16C27.001 16.1314 26.9751 16.2615 26.9247 16.3829C26.8744 16.5043 26.8007 16.6146 26.7077 16.7075L17.7077 25.7075C17.6148 25.8005 17.5045 25.8742 17.3831 25.9246C17.2617 25.9749 17.1316 26.0008 17.0002 26.0008C16.8688 26.0008 16.7386 25.9749 16.6172 25.9246C16.4959 25.8742 16.3856 25.8005 16.2927 25.7075Z" fill="#8C8989"/>
</svg>
