<svg width="11" height="20" viewBox="0 0 11 20" fill="none" xmlns="http://www.w3.org/2000/svg">
<path d="M0.292689 19.7075C0.199713 19.6146 0.125954 19.5043 0.0756302 19.3829C0.0253059 19.2615 -0.000596046 19.1314 -0.000596046 19C-0.000596046 18.8686 0.0253059 18.7385 0.0756302 18.6171C0.125954 18.4957 0.199713 18.3854 0.292689 18.2925L8.58644 10L0.292689 1.7075C0.105049 1.51986 -0.000367167 1.26536 -0.000367165 0.999999C-0.000367163 0.734635 0.105049 0.48014 0.292689 0.292499C0.48033 0.104858 0.734826 -0.000556944 1.00019 -0.000556946C1.26555 -0.000556948 1.52005 0.104858 1.70769 0.292499L10.7077 9.2925C10.8007 9.38537 10.8744 9.49566 10.9247 9.61706C10.9751 9.73846 11.001 9.86858 11.001 10C11.001 10.1314 10.9751 10.2615 10.9247 10.3829C10.8744 10.5043 10.8007 10.6146 10.7077 10.7075L1.70769 19.7075C1.61482 19.8005 1.50453 19.8742 1.38313 19.9246C1.26173 19.9749 1.13161 20.0008 1.00019 20.0008C0.868774 20.0008 0.738648 19.9749 0.617249 19.9246C0.495851 19.8742 0.385562 19.8005 0.292689 19.7075Z" fill="#8C8989"/>
</svg>
