<svg width="15" height="14" viewBox="0 0 15 14" fill="none" xmlns="http://www.w3.org/2000/svg">
<path d="M8.94962 11.1242C8.94962 11.48 8.69959 11.9467 8.38084 12.1275L7.49961 12.6584C6.68086 13.1309 5.54336 12.6 5.54336 11.655V8.53418C5.54336 8.12001 5.29336 7.58918 5.03711 7.29752L2.63709 4.94084C2.31834 4.64334 2.06836 4.11835 2.06836 3.76252V2.40918C2.06836 1.70335 2.63712 1.17252 3.33087 1.17252H11.6684C12.3621 1.17252 12.9309 1.70334 12.9309 2.35084V3.64584C12.9309 4.11834 12.6121 4.70751 12.2996 4.99918" stroke="#171717" stroke-width="1.5" stroke-miterlimit="10" stroke-linecap="round" stroke-linejoin="round"/>
<path d="M10.044 9.63665C11.1485 9.63665 12.044 8.80093 12.044 7.76999C12.044 6.73906 11.1485 5.90332 10.044 5.90332C8.93938 5.90332 8.04395 6.73906 8.04395 7.76999C8.04395 8.80093 8.93938 9.63665 10.044 9.63665Z" stroke="#171717" stroke-width="1.5" stroke-linecap="round" stroke-linejoin="round"/>
<path d="M12.4189 9.98665L11.7939 9.40332" stroke="#171717" stroke-width="1.5" stroke-linecap="round" stroke-linejoin="round"/>
</svg>
