<svg width="19" height="19" viewBox="0 0 19 19" fill="none" xmlns="http://www.w3.org/2000/svg">
<path d="M16.6012 4.90957L10.07 1.33594C9.89549 1.23951 9.69938 1.18893 9.5 1.18893C9.30062 1.18893 9.10451 1.23951 8.93 1.33594L2.39875 4.91105C2.21223 5.01311 2.05653 5.16337 1.94791 5.34614C1.83929 5.52892 1.78173 5.7375 1.78125 5.95012V13.0484C1.78173 13.261 1.83929 13.4696 1.94791 13.6524C2.05653 13.8351 2.21223 13.9854 2.39875 14.0875L8.93 17.6626C9.10451 17.759 9.30062 17.8096 9.5 17.8096C9.69938 17.8096 9.89549 17.759 10.07 17.6626L16.6012 14.0875C16.7878 13.9854 16.9435 13.8351 17.0521 13.6524C17.1607 13.4696 17.2183 13.261 17.2188 13.0484V5.95086C17.2187 5.73786 17.1613 5.52882 17.0527 5.34561C16.944 5.16241 16.7881 5.0118 16.6012 4.90957ZM9.5 2.375L15.4627 5.64062L13.2532 6.85039L7.28977 3.58476L9.5 2.375ZM9.5 8.90625L3.53727 5.64062L6.05328 4.26312L12.016 7.52875L9.5 8.90625ZM2.96875 6.67969L8.90625 9.92898V16.2962L2.96875 13.0491V6.67969ZM16.0312 13.0462L10.0938 16.2962V9.93195L12.4688 8.63238V11.2812C12.4688 11.4387 12.5313 11.5897 12.6427 11.7011C12.754 11.8124 12.905 11.875 13.0625 11.875C13.22 11.875 13.371 11.8124 13.4823 11.7011C13.5937 11.5897 13.6562 11.4387 13.6562 11.2812V7.98222L16.0312 6.67969V13.0454V13.0462Z" fill="#B4B0B0"/>
</svg>
